<?xml version="1.0" encoding="utf-8"?>
<!-- Generator: Adobe Illustrator 15.0.0, SVG Export Plug-In . SVG Version: 6.00 Build 0)  -->
<!DOCTYPE svg PUBLIC "-//W3C//DTD SVG 1.1//EN" "http://www.w3.org/Graphics/SVG/1.1/DTD/svg11.dtd">
<svg version="1.1" id="Слой_1" xmlns="http://www.w3.org/2000/svg" xmlns:xlink="http://www.w3.org/1999/xlink" x="0px" y="0px"
	 width="512px" height="512px" viewBox="0 0 512 512" enable-background="new 0 0 512 512" xml:space="preserve">
<g>
	<defs>
		<rect id="SVGID_1_" width="512" height="512"/>
	</defs>
	<clipPath id="SVGID_2_">
		<use xlink:href="#SVGID_1_"  overflow="visible"/>
	</clipPath>
	<path fill="#FF6178"  clip-path="url(#SVGID_2_)" d="M386,190c11.046,0,20,8.954,20,20s-8.954,20-20,20s-20-8.954-20-20S374.954,190,386,190"/>
	<path fill="#FF6178"  clip-path="url(#SVGID_2_)" d="M432,40h-26V20c0-11.046-8.954-20-20-20s-20,8.954-20,20v20h-91V20c0-11.046-8.954-20-20-20
		s-20,8.954-20,20v20h-90V20c0-11.046-8.954-20-20-20s-20,8.954-20,20v20H80C35.888,40,0,75.888,0,120v312c0,44.112,35.888,80,80,80
		h153c11.046,0,20-8.954,20-20s-8.954-20-20-20H80c-22.056,0-40-17.944-40-40V120c0-22.056,17.944-40,40-40h25v20
		c0,11.046,8.954,20,20,20s20-8.954,20-20V80h90v20c0,11.046,8.954,20,20,20s20-8.954,20-20V80h91v20c0,11.046,8.954,20,20,20
		s20-8.954,20-20V80h26c22.056,0,40,17.944,40,40v114c0,11.046,8.954,20,20,20s20-8.954,20-20V120C512,75.888,476.112,40,432,40"/>
	<path fill="#FF6178"  clip-path="url(#SVGID_2_)" d="M391,270c-66.72,0-121,54.28-121,121s54.28,121,121,121s121-54.28,121-121S457.72,270,391,270
		 M391,472c-44.663,0-81-36.336-81-81s36.337-81,81-81s81,36.336,81,81S435.663,472,391,472"/>
	<path fill="#FF6178"  clip-path="url(#SVGID_2_)" d="M420,371h-9v-21c0-11.046-8.954-20-20-20s-20,8.954-20,20v41c0,11.046,8.954,20,20,20h29
		c11.046,0,20-8.954,20-20S431.046,371,420,371"/>
	<path fill="#FF6178"  clip-path="url(#SVGID_2_)" d="M299,190c11.046,0,20,8.954,20,20s-8.954,20-20,20s-20-8.954-20-20S287.954,190,299,190"/>
	<path fill="#FF6178"  clip-path="url(#SVGID_2_)" d="M212,277c11.046,0,20,8.954,20,20s-8.954,20-20,20s-20-8.954-20-20S200.954,277,212,277"/>
	<path fill="#FF6178"  clip-path="url(#SVGID_2_)" d="M125,190c11.046,0,20,8.954,20,20s-8.954,20-20,20s-20-8.954-20-20S113.954,190,125,190"/>
	<path fill="#FF6178"  clip-path="url(#SVGID_2_)" d="M125,277c11.046,0,20,8.954,20,20s-8.954,20-20,20s-20-8.954-20-20S113.954,277,125,277"/>
	<path fill="#FF6178"  clip-path="url(#SVGID_2_)" d="M125,364c11.046,0,20,8.954,20,20s-8.954,20-20,20s-20-8.954-20-20S113.954,364,125,364"/>
	<path fill="#FF6178"  clip-path="url(#SVGID_2_)" d="M212,364c11.046,0,20,8.954,20,20s-8.954,20-20,20s-20-8.954-20-20S200.954,364,212,364"/>
	<path fill="#FF6178"  clip-path="url(#SVGID_2_)" d="M212,190c11.046,0,20,8.954,20,20s-8.954,20-20,20s-20-8.954-20-20S200.954,190,212,190"/>
</g>
</svg>
