<?xml version="1.0" encoding="utf-8"?>
<!-- Generator: Adobe Illustrator 15.0.0, SVG Export Plug-In . SVG Version: 6.00 Build 0)  -->
<!DOCTYPE svg PUBLIC "-//W3C//DTD SVG 1.1//EN" "http://www.w3.org/Graphics/SVG/1.1/DTD/svg11.dtd">
<svg version="1.1" id="Слой_1" xmlns="http://www.w3.org/2000/svg" xmlns:xlink="http://www.w3.org/1999/xlink" x="0px" y="0px"
	 width="473.117px" height="473.806px" viewBox="0 0 473.117 473.806" enable-background="new 0 0 473.117 473.806"
	 xml:space="preserve">
<g>
	<defs>
		<rect id="SVGID_1_" width="473.117" height="473.806"/>
	</defs>
	<clipPath id="SVGID_2_">
		<use xlink:href="#SVGID_1_"  overflow="visible"/>
	</clipPath>
	<path clip-path="url(#SVGID_2_)" fill="#FF6178" d="M374.111,293.505c-9.7-10.099-21.4-15.5-33.8-15.5c-12.299,0-24.101,5.301-34.2,15.401
		l-31.599,31.5c-2.602-1.401-5.201-2.701-7.701-4c-3.601-1.8-7-3.5-9.9-5.3c-29.6-18.801-56.5-43.301-82.3-75
		c-12.5-15.801-20.9-29.101-27-42.601c8.2-7.5,15.8-15.3,23.2-22.8c2.8-2.799,5.6-5.7,8.4-8.5c21-21,21-48.2,0-69.2l-27.3-27.3
		c-3.1-3.1-6.3-6.299-9.3-9.5c-6-6.2-12.3-12.6-18.8-18.6c-9.7-9.6-21.3-14.699-33.5-14.699c-12.2,0-24,5.099-34,14.699
		c-0.1,0.1-0.1,0.1-0.2,0.2l-34,34.3c-12.8,12.801-20.1,28.4-21.7,46.5c-2.4,29.2,6.2,56.4,12.8,74.2
		c16.2,43.7,40.4,84.2,76.5,127.601c43.8,52.299,96.5,93.599,156.7,122.7c23,10.898,53.7,23.8,88,26
		c2.101,0.099,4.3,0.199,6.3,0.199c23.101,0,42.5-8.301,57.7-24.801c0.101-0.199,0.3-0.3,0.4-0.5c5.2-6.3,11.2-12,17.5-18.099
		c4.3-4.101,8.7-8.401,13-12.901c9.899-10.3,15.1-22.3,15.1-34.599c0-12.401-5.3-24.3-15.399-34.3L374.111,293.505z
		 M409.911,398.806C409.812,398.806,409.812,398.907,409.911,398.806c-3.898,4.199-7.898,8-12.2,12.199c-6.5,6.2-13.1,12.7-19.3,20
		c-10.1,10.801-22,15.901-37.6,15.901c-1.5,0-3.101,0-4.601-0.101c-29.698-1.899-57.3-13.5-78-23.399
		c-56.6-27.401-106.299-66.3-147.6-115.601c-34.1-41.101-56.9-79.101-72-119.899c-9.3-24.901-12.7-44.301-11.2-62.601
		c1-11.7,5.5-21.399,13.8-29.7l34.1-34.1c4.9-4.599,10.1-7.099,15.2-7.099c6.3,0,11.4,3.799,14.6,7c0.1,0.099,0.2,0.199,0.3,0.299
		c6.1,5.701,11.9,11.6,18,17.9c3.1,3.2,6.3,6.4,9.5,9.7l27.3,27.3c10.6,10.6,10.6,20.4,0,31c-2.9,2.9-5.7,5.801-8.6,8.6
		c-8.4,8.6-16.4,16.6-25.1,24.4c-0.2,0.2-0.4,0.301-0.5,0.5c-8.6,8.6-7,17-5.2,22.7c0.1,0.3,0.2,0.601,0.3,0.9
		c7.1,17.2,17.1,33.401,32.3,52.701l0.1,0.099c27.6,34,56.7,60.5,88.8,80.801c4.1,2.601,8.3,4.699,12.3,6.699
		c3.6,1.801,7,3.5,9.901,5.301c0.398,0.199,0.799,0.5,1.198,0.699c3.4,1.7,6.601,2.5,9.9,2.5c8.3,0,13.5-5.199,15.2-6.898
		l34.201-34.2c3.398-3.401,8.799-7.5,15.099-7.5c6.2,0,11.3,3.899,14.401,7.299c0.099,0.101,0.099,0.101,0.198,0.201l55.101,55.099
		C420.111,377.706,420.111,388.206,409.911,398.806"/>
	<path clip-path="url(#SVGID_2_)" fill="#FF6178" d="M255.711,112.706c26.2,4.4,50,16.8,69,35.8s31.301,42.8,35.801,69
		c1.1,6.6,6.801,11.2,13.301,11.2c0.799,0,1.5-0.1,2.299-0.2c7.399-1.2,12.3-8.2,11.1-15.6c-5.398-31.7-20.398-60.6-43.3-83.5
		c-22.899-22.9-51.8-37.9-83.5-43.3c-7.399-1.2-14.3,3.7-15.599,11C243.512,104.406,248.313,111.506,255.711,112.706"/>
	<path clip-path="url(#SVGID_2_)" fill="#FF6178" d="M472.911,209.006c-8.898-52.2-33.5-99.7-71.3-137.5c-37.8-37.8-85.3-62.4-137.5-71.3
		c-7.3-1.3-14.2,3.7-15.5,11c-1.2,7.4,3.7,14.3,11.1,15.6c46.601,7.9,89.101,30,122.9,63.7c33.8,33.8,55.8,76.3,63.7,122.9
		c1.1,6.6,6.8,11.2,13.3,11.2c0.8,0,1.5-0.1,2.3-0.2C469.211,223.306,474.211,216.306,472.911,209.006"/>
</g>
</svg>
