<?xml version="1.0" encoding="utf-8"?>
<!-- Generator: Adobe Illustrator 15.0.0, SVG Export Plug-In . SVG Version: 6.00 Build 0)  -->
<!DOCTYPE svg PUBLIC "-//W3C//DTD SVG 1.1//EN" "http://www.w3.org/Graphics/SVG/1.1/DTD/svg11.dtd">
<svg version="1.1" id="Слой_1" xmlns="http://www.w3.org/2000/svg" xmlns:xlink="http://www.w3.org/1999/xlink" x="0px" y="0px"
	 width="59.9px" height="59.9px" viewBox="0 0 59.9 59.9" enable-background="new 0 0 59.9 59.9" xml:space="preserve">
<g>
	<defs>
		<rect id="SVGID_1_" y="0" width="59.901" height="59.901"/>
	</defs>
	<clipPath id="SVGID_2_">
		<use xlink:href="#SVGID_1_"  overflow="visible"/>
	</clipPath>
	<path clip-path="url(#SVGID_2_)" fill="#FF6178" d="M27,24V3c0-1.7,1.3-3,3-3c16.6,0,30,13.4,29.9,30c0,16.5-13.4,30-30,29.9
		C13.3,59.8,0,46.5,0,29.899c0-11,6-21.1,15.7-26.3c1.5-0.8,3.3-0.2,4.1,1.2c0.8,1.4,0.2,3.3-1.2,4.1c-11.6,6.3-16,20.9-9.7,32.5
		c6.3,11.601,20.9,16,32.5,9.7c11.6-6.3,16-20.9,9.699-32.5C47.4,11.8,40.7,7.1,33,6.2V30c0,1.7-1.3,3-3,3c-0.6,0-1.3-0.2-1.8-0.601
		l-12-9c-1.3-1-1.5-2.9-0.5-4.2c1-1.3,2.8-1.5,4.1-0.6L27,24z"/>
</g>
</svg>
