<?xml version="1.0" encoding="utf-8"?>
<!-- Generator: Adobe Illustrator 15.0.0, SVG Export Plug-In . SVG Version: 6.00 Build 0)  -->
<!DOCTYPE svg PUBLIC "-//W3C//DTD SVG 1.1//EN" "http://www.w3.org/Graphics/SVG/1.1/DTD/svg11.dtd">
<svg version="1.1" id="Слой_1" xmlns="http://www.w3.org/2000/svg" xmlns:xlink="http://www.w3.org/1999/xlink" x="0px" y="0px"
	 width="279.504px" height="125.626px" viewBox="0 0 279.504 125.626" enable-background="new 0 0 279.504 125.626"
	 xml:space="preserve">
<g>
	<defs>
		<rect id="SVGID_1_" width="279.504" height="125.626"/>
	</defs>
	<clipPath id="SVGID_2_">
		<use xlink:href="#SVGID_1_"  overflow="visible"/>
	</clipPath>
	<path clip-path="url(#SVGID_2_)" fill="#3D3D3D" d="M28.627,33.167c0,0-4.025,4.475-6.668,6.638
		c-2.76,2.258-5.265,5.128-9.055,5.31c-1.998,0.096-3.442-0.396-3.501,0.15c-0.059,0.547,1.923,1.508,1.923,1.508
		s-4.024,2.523-3.604,2.883c0.421,0.361,2.944-0.961,4.325-1.441c1.382-0.481,2.463-0.481,2.704-0.181
		c0.24,0.301,0.68,1.006-0.171,1.489s-2.548,0.188-2.217,0.659c0.856,1.217,4.419,1.466,5.243,1.285
		c-0.33,0.2-2.923,1.712-2.315,2.154c0.661,0.481,2.583-0.961,5.767-2.883c5.326-3.216,9.615-7.8,13.697-12.435L28.627,33.167z
		 M22.494,46.924c-1.158,0.865-2.831,1.526-3.958,0.48c-1.875-1.741,8.357-6.925,9.432-7.479c-1.441,2.139-2.893,4.283-4.608,6.215
		C23.134,46.394,22.836,46.667,22.494,46.924"/>
	<path clip-path="url(#SVGID_2_)" fill="#3D3D3D" d="M62.855,64.404c-4.445-4.223-8.955-8.359-13.505-12.47
		c1.245-3.626,2.519-7.242,3.759-10.871c1.131-3.313,2.754-6.954,2.698-10.522c-0.052-3.526-2.98-6.78-5.102-9.332
		c-1.176-1.415-2.595-2.696-3.4-4.379c-0.818-1.712-0.93-3.783-0.942-5.599c-0.012-1.69,2.621-2.706,2.621-4.013
		c0-1.308-2.621-2.895-2.621-2.895l-0.747-1.68l-1.717-0.164c-1.484-1.046-3.558-2.404-5.443-2.474
		c-3.17-0.117-5.268,1.709-7.03,4.132c-1.494,2.053-3.175,5.601-3.175,5.601s1.868,0,1.681,0.933c-0.187,0.934,0,2.988-1.12,6.162
		c-1.121,3.174-3.081,5.508-2.801,6.161c0.28,0.654,2.987-1.12,2.987-0.187c0,0.934-0.186,1.681-0.747,4.668
		c-0.56,2.988-3.174,5.228-2.987,5.789c0.187,0.56,1.307-0.374,2.054-0.187s0.373,2.614,1.68,4.107
		c1.308,1.494,4.295,2.241,4.295,2.241s0.467,2.427,1.12,2.24c0.654-0.186,2.334-3.921,2.801-5.041
		c0.467-1.12,2.053-7.095,2.613-6.908c0.561,0.187,2.055,2.427,2.055,3.734s0.56,2.614-1.121,7.095
		c-0.98,2.614-3.051,4.684-4.628,6.981c-2.054,2.994-2.063,5.628-1.997,9.15c0.06,3.198,0.367,6.508,0.028,9.698
		c-0.351,3.303-0.698,6.604-0.846,9.921c-0.088,1.965,0.303,5.219-0.647,7.007c-1.041,1.957-1.758,4.975-3.486,6.473
		c-0.934,0.81-1.494,3.236-1.494,3.236s0.996,0,1.245,0.747s0.187,14.813,0.498,16.182s-1.743,3.734-1.743,4.979
		c0,1.244,3.05,1.867,2.739,3.982c-0.311,2.116-2.209,6.659-1.494,6.722c0.716,0.063,3.61-1.493,4.73-4.73
		c1.12-3.236,1.245-6.223,1.245-6.223c-0.905-4.559-1.22-9.253-0.357-13.844c0.619-3.298,1.624-6.528,2.349-9.808
		c0,0,2.8-0.995,5.477-3.236c3.092-2.589,5.924-5.339,9.593-7.111c2.932-1.417,5.881-2.802,8.751-4.342
		c1.501-0.806,2.982-1.65,4.422-2.563c1.081-0.684,2.39-1.511,2.501-2.918C67.866,68.048,64.599,66.062,62.855,64.404
		 M49.723,72.474c-3.734,2.801-9.148,9.335-9.148,9.335s2.427-5.414,3.734-10.082s0.747-7.282,0.747-7.282s2.054,0.747,4.48,1.682
		c2.428,0.933,7.283,3.547,7.283,3.547S53.457,69.673,49.723,72.474"/>
</g>
<g>
	<defs>
		<path id="SVGID_3_" d="M64.178,21.741c-0.221,0.328-0.161,0.676,0.046,1.002c0.023,0.038,0.039,0.084,0.071,0.113
			c0.238,0.215,0.421,0.557,0.821,0.455c0.25-0.063,0.461-0.524,0.452-0.908c-0.01-0.397-0.217-0.65-0.668-0.818
			c-0.106-0.039-0.212-0.063-0.312-0.063C64.428,21.522,64.284,21.583,64.178,21.741"/>
	</defs>
	<clipPath id="SVGID_4_">
		<use xlink:href="#SVGID_3_"  overflow="visible"/>
	</clipPath>
	
		<linearGradient id="SVGID_5_" gradientUnits="userSpaceOnUse" x1="0" y1="125.625" x2="1" y2="125.625" gradientTransform="matrix(69.2026 -60.1919 -60.1919 -69.2026 7562.458 8771.666)">
		<stop  offset="0" style="stop-color:#EEC65F"/>
		<stop  offset="0.23" style="stop-color:#A76F2A"/>
		<stop  offset="0.33" style="stop-color:#E2B755"/>
		<stop  offset="0.58" style="stop-color:#E2B755"/>
		<stop  offset="0.69" style="stop-color:#8F5D21"/>
		<stop  offset="1" style="stop-color:#E2B755"/>
	</linearGradient>
	<polygon clip-path="url(#SVGID_4_)" fill="url(#SVGID_5_)" points="63.021,22.336 64.879,20.72 66.513,22.599 64.655,24.215 	"/>
</g>
<g>
	<defs>
		<path id="SVGID_6_" d="M82.21,75.219c-0.019,0.558,0.299,0.992,0.741,1.013c0.343,0.016,0.713-0.396,0.729-0.808
			c0.018-0.491-0.262-0.744-0.858-0.769c-0.029-0.001-0.056-0.001-0.082-0.001C82.349,74.654,82.225,74.793,82.21,75.219"/>
	</defs>
	<clipPath id="SVGID_7_">
		<use xlink:href="#SVGID_6_"  overflow="visible"/>
	</clipPath>
	
		<linearGradient id="SVGID_8_" gradientUnits="userSpaceOnUse" x1="0" y1="125.624" x2="1" y2="125.624" gradientTransform="matrix(69.2027 -60.192 -60.192 -69.2027 7596.4976 8810.8467)">
		<stop  offset="0" style="stop-color:#EEC65F"/>
		<stop  offset="0.23" style="stop-color:#A76F2A"/>
		<stop  offset="0.33" style="stop-color:#E2B755"/>
		<stop  offset="0.58" style="stop-color:#E2B755"/>
		<stop  offset="0.69" style="stop-color:#8F5D21"/>
		<stop  offset="1" style="stop-color:#E2B755"/>
	</linearGradient>
	<polygon clip-path="url(#SVGID_7_)" fill="url(#SVGID_8_)" points="81.402,75.34 83.049,73.908 84.487,75.561 82.84,76.993 	"/>
</g>
<g>
	<defs>
		<path id="SVGID_9_" d="M19.463,25.769c0.009,0.408,0.315,0.664,0.763,0.644c0.386-0.019,0.715-0.412,0.696-0.836
			c-0.018-0.41-0.377-0.767-0.772-0.77c-0.002,0-0.004,0-0.006,0C19.728,24.807,19.45,25.2,19.463,25.769"/>
	</defs>
	<clipPath id="SVGID_10_">
		<use xlink:href="#SVGID_9_"  overflow="visible"/>
	</clipPath>
	
		<linearGradient id="SVGID_11_" gradientUnits="userSpaceOnUse" x1="0" y1="125.626" x2="1" y2="125.626" gradientTransform="matrix(69.2019 -60.1913 -60.1913 -69.2019 7544.752 8751.4092)">
		<stop  offset="0" style="stop-color:#EEC65F"/>
		<stop  offset="0.23" style="stop-color:#A76F2A"/>
		<stop  offset="0.33" style="stop-color:#E2B755"/>
		<stop  offset="0.58" style="stop-color:#E2B755"/>
		<stop  offset="0.69" style="stop-color:#8F5D21"/>
		<stop  offset="1" style="stop-color:#E2B755"/>
	</linearGradient>
	<polygon clip-path="url(#SVGID_10_)" fill="url(#SVGID_11_)" points="18.645,25.507 20.299,24.069 21.746,25.732 20.092,27.171 	
		"/>
</g>
<g>
	<defs>
		<path id="SVGID_12_" d="M64.884,96.964c-0.036,0.464,0.352,0.859,0.871,0.888c0.315,0.02,0.548-0.185,0.58-0.505
			c0.041-0.433-0.386-0.953-0.81-0.984c-0.018-0.001-0.036-0.001-0.054-0.001C65.141,96.361,64.914,96.59,64.884,96.964"/>
	</defs>
	<clipPath id="SVGID_13_">
		<use xlink:href="#SVGID_12_"  overflow="visible"/>
	</clipPath>
	
		<linearGradient id="SVGID_14_" gradientUnits="userSpaceOnUse" x1="0" y1="125.626" x2="1" y2="125.626" gradientTransform="matrix(69.2027 -60.192 -60.192 -69.2027 7599.8218 8814.7217)">
		<stop  offset="0" style="stop-color:#EEC65F"/>
		<stop  offset="0.23" style="stop-color:#A76F2A"/>
		<stop  offset="0.33" style="stop-color:#E2B755"/>
		<stop  offset="0.58" style="stop-color:#E2B755"/>
		<stop  offset="0.69" style="stop-color:#8F5D21"/>
		<stop  offset="1" style="stop-color:#E2B755"/>
	</linearGradient>
	<polygon clip-path="url(#SVGID_13_)" fill="url(#SVGID_14_)" points="64.1,97.012 65.718,95.604 67.124,97.221 65.506,98.628 	"/>
</g>
<g>
	<defs>
		<path id="SVGID_15_" d="M6.433,40.248c-0.013,0.424,0.357,0.89,0.715,0.898c0.332,0.007,0.628-0.364,0.635-0.795
			c0.007-0.482-0.165-0.691-0.581-0.706c-0.02,0-0.039-0.001-0.058-0.001C6.683,39.644,6.445,39.845,6.433,40.248"/>
	</defs>
	<clipPath id="SVGID_16_">
		<use xlink:href="#SVGID_15_"  overflow="visible"/>
	</clipPath>
	
		<linearGradient id="SVGID_17_" gradientUnits="userSpaceOnUse" x1="0" y1="125.626" x2="1" y2="125.626" gradientTransform="matrix(69.2014 -60.1908 -60.1908 -69.2014 7546.3657 8753.251)">
		<stop  offset="0" style="stop-color:#EEC65F"/>
		<stop  offset="0.23" style="stop-color:#A76F2A"/>
		<stop  offset="0.33" style="stop-color:#E2B755"/>
		<stop  offset="0.58" style="stop-color:#E2B755"/>
		<stop  offset="0.69" style="stop-color:#8F5D21"/>
		<stop  offset="1" style="stop-color:#E2B755"/>
	</linearGradient>
	<polygon clip-path="url(#SVGID_16_)" fill="url(#SVGID_17_)" points="5.673,40.294 7.2,38.966 8.537,40.503 7.01,41.832 	"/>
</g>
<g>
	<defs>
		<path id="SVGID_18_" d="M82.895,43.434c-0.012,0.461,0.296,0.821,0.698,0.821c0.379,0,0.652-0.315,0.666-0.765
			c0.01-0.372-0.409-0.766-0.842-0.789c-0.007,0-0.013-0.001-0.019-0.001C83.136,42.7,82.905,43.036,82.895,43.434"/>
	</defs>
	<clipPath id="SVGID_19_">
		<use xlink:href="#SVGID_18_"  overflow="visible"/>
	</clipPath>
	
		<linearGradient id="SVGID_20_" gradientUnits="userSpaceOnUse" x1="0" y1="125.626" x2="1" y2="125.626" gradientTransform="matrix(69.2045 -60.1935 -60.1935 -69.2045 7581.1729 8793.2607)">
		<stop  offset="0" style="stop-color:#EEC65F"/>
		<stop  offset="0.23" style="stop-color:#A76F2A"/>
		<stop  offset="0.33" style="stop-color:#E2B755"/>
		<stop  offset="0.58" style="stop-color:#E2B755"/>
		<stop  offset="0.69" style="stop-color:#8F5D21"/>
		<stop  offset="1" style="stop-color:#E2B755"/>
	</linearGradient>
	<polygon clip-path="url(#SVGID_19_)" fill="url(#SVGID_20_)" points="82.113,43.37 83.672,42.014 85.039,43.585 83.48,44.941 	"/>
</g>
<g>
	<defs>
		<path id="SVGID_21_" d="M15.369,95.042c-0.229,0.14-0.256,0.527-0.108,0.909c0.186,0.483,0.57,0.564,1.047,0.573
			c0.252-0.522,0.273-0.801,0.102-1.107c-0.134-0.239-0.532-0.426-0.823-0.426C15.502,94.991,15.427,95.007,15.369,95.042"/>
	</defs>
	<clipPath id="SVGID_22_">
		<use xlink:href="#SVGID_21_"  overflow="visible"/>
	</clipPath>
	
		<linearGradient id="SVGID_23_" gradientUnits="userSpaceOnUse" x1="0" y1="125.626" x2="1" y2="125.626" gradientTransform="matrix(69.2041 -60.1932 -60.1932 -69.2041 7577.8735 8789.416)">
		<stop  offset="0" style="stop-color:#EEC65F"/>
		<stop  offset="0.23" style="stop-color:#A76F2A"/>
		<stop  offset="0.33" style="stop-color:#E2B755"/>
		<stop  offset="0.58" style="stop-color:#E2B755"/>
		<stop  offset="0.69" style="stop-color:#8F5D21"/>
		<stop  offset="1" style="stop-color:#E2B755"/>
	</linearGradient>
	<polygon clip-path="url(#SVGID_22_)" fill="url(#SVGID_23_)" points="14.354,95.651 15.949,94.264 17.34,95.863 15.745,97.251 	"/>
</g>
<g>
	<defs>
		<path id="SVGID_24_" d="M2.612,58.541c-0.443,0.015-0.76,0.303-0.732,0.666c0.029,0.379,0.33,0.664,0.69,0.648
			c0.381-0.017,0.693-0.347,0.695-0.74c0.001-0.342-0.251-0.575-0.62-0.575C2.634,58.54,2.623,58.54,2.612,58.541"/>
	</defs>
	<clipPath id="SVGID_25_">
		<use xlink:href="#SVGID_24_"  overflow="visible"/>
	</clipPath>
	
		<linearGradient id="SVGID_26_" gradientUnits="userSpaceOnUse" x1="0" y1="125.627" x2="1" y2="125.627" gradientTransform="matrix(69.2007 -60.1902 -60.1902 -69.2007 7553.6577 8761.625)">
		<stop  offset="0" style="stop-color:#EEC65F"/>
		<stop  offset="0.23" style="stop-color:#A76F2A"/>
		<stop  offset="0.33" style="stop-color:#E2B755"/>
		<stop  offset="0.58" style="stop-color:#E2B755"/>
		<stop  offset="0.69" style="stop-color:#8F5D21"/>
		<stop  offset="1" style="stop-color:#E2B755"/>
	</linearGradient>
	<polygon clip-path="url(#SVGID_25_)" fill="url(#SVGID_26_)" points="1.193,59.113 2.657,57.84 3.925,59.298 2.461,60.571 	"/>
</g>
<g>
	<defs>
		<path id="SVGID_27_" d="M2.729,74.049c-0.203,0.162-0.251,0.698-0.073,0.982c0.08,0.126,0.197,0.226,0.324,0.367
			c0.296-0.193,0.543-0.329,0.762-0.501c0.294-0.232,0.28-0.537-0.012-0.773c-0.125-0.102-0.393-0.16-0.627-0.16
			C2.943,73.964,2.8,73.991,2.729,74.049"/>
	</defs>
	<clipPath id="SVGID_28_">
		<use xlink:href="#SVGID_27_"  overflow="visible"/>
	</clipPath>
	
		<linearGradient id="SVGID_29_" gradientUnits="userSpaceOnUse" x1="0" y1="125.625" x2="1" y2="125.625" gradientTransform="matrix(69.2026 -60.1919 -60.1919 -69.2026 7561.729 8770.9219)">
		<stop  offset="0" style="stop-color:#EEC65F"/>
		<stop  offset="0.23" style="stop-color:#A76F2A"/>
		<stop  offset="0.33" style="stop-color:#E2B755"/>
		<stop  offset="0.58" style="stop-color:#E2B755"/>
		<stop  offset="0.69" style="stop-color:#8F5D21"/>
		<stop  offset="1" style="stop-color:#E2B755"/>
	</linearGradient>
	<polygon clip-path="url(#SVGID_28_)" fill="url(#SVGID_29_)" points="1.768,74.582 3.365,73.192 4.746,74.78 3.149,76.17 	"/>
</g>
<g>
	<defs>
		<path id="SVGID_30_" d="M80.381,33.515c-0.04,0.369,0.244,0.755,0.571,0.777c0.298,0.022,0.592-0.292,0.625-0.662
			c0.032-0.405-0.211-0.684-0.619-0.711c-0.014-0.001-0.027-0.002-0.04-0.002C80.623,32.918,80.422,33.141,80.381,33.515"/>
	</defs>
	<clipPath id="SVGID_31_">
		<use xlink:href="#SVGID_30_"  overflow="visible"/>
	</clipPath>
	
		<linearGradient id="SVGID_32_" gradientUnits="userSpaceOnUse" x1="0" y1="125.624" x2="1" y2="125.624" gradientTransform="matrix(69.1997 -60.1894 -60.1894 -69.1997 7574.6401 8785.752)">
		<stop  offset="0" style="stop-color:#EEC65F"/>
		<stop  offset="0.23" style="stop-color:#A76F2A"/>
		<stop  offset="0.33" style="stop-color:#E2B755"/>
		<stop  offset="0.58" style="stop-color:#E2B755"/>
		<stop  offset="0.69" style="stop-color:#8F5D21"/>
		<stop  offset="1" style="stop-color:#E2B755"/>
	</linearGradient>
	<polygon clip-path="url(#SVGID_31_)" fill="url(#SVGID_32_)" points="79.649,33.519 81.063,32.289 82.301,33.712 80.887,34.942 	
		"/>
</g>
<g>
	<defs>
		<path id="SVGID_33_" d="M10.685,83.229c-0.299,0.022-0.446,0.263-0.425,0.701c0.019,0.429,0.279,0.716,0.634,0.705
			c0.367-0.014,0.577-0.262,0.567-0.672c-0.01-0.405-0.344-0.736-0.728-0.736C10.717,83.227,10.701,83.228,10.685,83.229"/>
	</defs>
	<clipPath id="SVGID_34_">
		<use xlink:href="#SVGID_33_"  overflow="visible"/>
	</clipPath>
	
		<linearGradient id="SVGID_35_" gradientUnits="userSpaceOnUse" x1="0" y1="125.626" x2="1" y2="125.626" gradientTransform="matrix(69.2028 -60.1921 -60.1921 -69.2028 7569.6982 8780.1035)">
		<stop  offset="0" style="stop-color:#EEC65F"/>
		<stop  offset="0.23" style="stop-color:#A76F2A"/>
		<stop  offset="0.33" style="stop-color:#E2B755"/>
		<stop  offset="0.58" style="stop-color:#E2B755"/>
		<stop  offset="0.69" style="stop-color:#8F5D21"/>
		<stop  offset="1" style="stop-color:#E2B755"/>
	</linearGradient>
	<polygon clip-path="url(#SVGID_34_)" fill="url(#SVGID_35_)" points="9.536,83.838 10.94,82.617 12.174,84.035 10.77,85.256 	"/>
</g>
<g>
	<defs>
		<path id="SVGID_36_" d="M46.771,98.847c-0.319,0.003-0.693,0.396-0.668,0.702c0.026,0.315,0.316,0.564,0.64,0.549
			c0.282-0.012,0.585-0.333,0.586-0.618c0.002-0.31-0.28-0.634-0.553-0.634C46.774,98.846,46.773,98.846,46.771,98.847"/>
	</defs>
	<clipPath id="SVGID_37_">
		<use xlink:href="#SVGID_36_"  overflow="visible"/>
	</clipPath>
	
		<linearGradient id="SVGID_38_" gradientUnits="userSpaceOnUse" x1="0" y1="125.627" x2="1" y2="125.627" gradientTransform="matrix(69.2029 -60.1921 -60.1921 -69.2029 7592.8701 8806.7441)">
		<stop  offset="0" style="stop-color:#EEC65F"/>
		<stop  offset="0.23" style="stop-color:#A76F2A"/>
		<stop  offset="0.33" style="stop-color:#E2B755"/>
		<stop  offset="0.58" style="stop-color:#E2B755"/>
		<stop  offset="0.69" style="stop-color:#8F5D21"/>
		<stop  offset="1" style="stop-color:#E2B755"/>
	</linearGradient>
	<polygon clip-path="url(#SVGID_37_)" fill="url(#SVGID_38_)" points="45.451,99.392 46.792,98.226 47.958,99.567 46.618,100.733 	
		"/>
</g>
<g>
	<defs>
		<path id="SVGID_39_" d="M8.626,26.405c0.071,0.394,0.244,0.668,0.594,0.661c0.208-0.004,0.451-0.149,0.61-0.301
			c0.217-0.207,0.14-0.453-0.149-0.56c-0.135-0.049-0.268-0.076-0.398-0.076C9.054,26.129,8.834,26.212,8.626,26.405"/>
	</defs>
	<clipPath id="SVGID_40_">
		<use xlink:href="#SVGID_39_"  overflow="visible"/>
	</clipPath>
	
		<linearGradient id="SVGID_41_" gradientUnits="userSpaceOnUse" x1="0" y1="125.626" x2="1" y2="125.626" gradientTransform="matrix(69.2016 -60.191 -60.191 -69.2016 7540.4873 8746.5127)">
		<stop  offset="0" style="stop-color:#EEC65F"/>
		<stop  offset="0.23" style="stop-color:#A76F2A"/>
		<stop  offset="0.33" style="stop-color:#E2B755"/>
		<stop  offset="0.58" style="stop-color:#E2B755"/>
		<stop  offset="0.69" style="stop-color:#8F5D21"/>
		<stop  offset="1" style="stop-color:#E2B755"/>
	</linearGradient>
	<polygon clip-path="url(#SVGID_40_)" fill="url(#SVGID_41_)" points="8.159,26.536 9.435,25.425 10.515,26.667 9.238,27.777 	"/>
</g>
<g>
	<defs>
		<path id="SVGID_42_" d="M57.175,27.302c0.906,0.764,0.683,1.83,0.945,2.757c0.502-0.111,0.395-0.485,0.375-0.787
			c-0.021-0.307-0.088-0.608-0.138-0.949c0.791,0.615,1.17,2.23,0.84,3.44C57.839,31.295,56.663,28.811,57.175,27.302
			 M57.156,26.493c-0.237,0.144-0.539,0.24-0.54,0.606c-0.002,0.311-0.017,0.621-0.034,0.931c-0.048,0.874,0.148,1.696,0.668,2.389
			c0.587,0.777,1.245,1.497,1.879,2.238c0.048,0.055,0.152,0.065,0.295,0.121c0.292-0.894,0.498-1.752,0.35-2.676
			c-0.225-1.418-1.088-2.45-2.034-3.436c-0.111-0.116-0.241-0.23-0.395-0.23C57.286,26.436,57.223,26.453,57.156,26.493"/>
	</defs>
	<clipPath id="SVGID_43_">
		<use xlink:href="#SVGID_42_"  overflow="visible"/>
	</clipPath>
	
		<linearGradient id="SVGID_44_" gradientUnits="userSpaceOnUse" x1="0" y1="125.625" x2="1" y2="125.625" gradientTransform="matrix(69.2029 -60.1921 -60.1921 -69.2029 7563.2412 8772.5889)">
		<stop  offset="0" style="stop-color:#EEC65F"/>
		<stop  offset="0.23" style="stop-color:#A76F2A"/>
		<stop  offset="0.33" style="stop-color:#E2B755"/>
		<stop  offset="0.58" style="stop-color:#E2B755"/>
		<stop  offset="0.69" style="stop-color:#8F5D21"/>
		<stop  offset="1" style="stop-color:#E2B755"/>
	</linearGradient>
	<polygon clip-path="url(#SVGID_43_)" fill="url(#SVGID_44_)" points="53.394,29.167 58.463,24.758 63.063,30.046 57.993,34.456 	
		"/>
</g>
<g>
	<defs>
		<path id="SVGID_45_" d="M50.725,91.099c-0.078,0.49,0.308,1.024,0.771,1.067c0.365,0.034,0.667-0.378,0.661-0.902
			c-0.008-0.526-0.224-0.828-0.627-0.872c-0.027-0.003-0.054-0.005-0.08-0.005C51.083,90.387,50.795,90.668,50.725,91.099"/>
	</defs>
	<clipPath id="SVGID_46_">
		<use xlink:href="#SVGID_45_"  overflow="visible"/>
	</clipPath>
	
		<linearGradient id="SVGID_47_" gradientUnits="userSpaceOnUse" x1="0" y1="125.627" x2="1" y2="125.627" gradientTransform="matrix(69.2025 -60.1918 -60.1918 -69.2025 7590.7993 8804.3252)">
		<stop  offset="0" style="stop-color:#EEC65F"/>
		<stop  offset="0.23" style="stop-color:#A76F2A"/>
		<stop  offset="0.33" style="stop-color:#E2B755"/>
		<stop  offset="0.58" style="stop-color:#E2B755"/>
		<stop  offset="0.69" style="stop-color:#8F5D21"/>
		<stop  offset="1" style="stop-color:#E2B755"/>
	</linearGradient>
	<polygon clip-path="url(#SVGID_46_)" fill="url(#SVGID_47_)" points="49.749,91.168 51.51,89.637 53.061,91.419 51.3,92.95 	"/>
</g>
<g>
	<defs>
		<path id="SVGID_48_" d="M74.955,58.507c-0.468,0.003-0.77,0.322-0.76,0.798c0.012,0.44,0.33,0.747,0.76,0.728
			c0.435-0.019,0.756-0.43,0.723-0.933c-0.02-0.374-0.283-0.593-0.71-0.593C74.963,58.507,74.959,58.507,74.955,58.507"/>
	</defs>
	<clipPath id="SVGID_49_">
		<use xlink:href="#SVGID_48_"  overflow="visible"/>
	</clipPath>
	
		<linearGradient id="SVGID_50_" gradientUnits="userSpaceOnUse" x1="0" y1="125.626" x2="1" y2="125.626" gradientTransform="matrix(69.2036 -60.1928 -60.1928 -69.2036 7585.1787 8797.8838)">
		<stop  offset="0" style="stop-color:#EEC65F"/>
		<stop  offset="0.23" style="stop-color:#A76F2A"/>
		<stop  offset="0.33" style="stop-color:#E2B755"/>
		<stop  offset="0.58" style="stop-color:#E2B755"/>
		<stop  offset="0.69" style="stop-color:#8F5D21"/>
		<stop  offset="1" style="stop-color:#E2B755"/>
	</linearGradient>
	<polygon clip-path="url(#SVGID_49_)" fill="url(#SVGID_50_)" points="73.42,59.172 75.054,57.751 76.476,59.387 74.842,60.808 	"/>
</g>
<g>
	<defs>
		<path id="SVGID_51_" d="M27.906,86.908c-0.019,0.354,0.44,0.826,0.815,0.836c0.394,0.012,0.721-0.323,0.705-0.724
			c-0.014-0.396-0.334-0.703-0.733-0.703C28.342,86.318,27.921,86.635,27.906,86.908"/>
	</defs>
	<clipPath id="SVGID_52_">
		<use xlink:href="#SVGID_51_"  overflow="visible"/>
	</clipPath>
	
		<linearGradient id="SVGID_53_" gradientUnits="userSpaceOnUse" x1="0" y1="125.626" x2="1" y2="125.626" gradientTransform="matrix(69.2034 -60.1926 -60.1926 -69.2034 7579.001 8790.7266)">
		<stop  offset="0" style="stop-color:#EEC65F"/>
		<stop  offset="0.23" style="stop-color:#A76F2A"/>
		<stop  offset="0.33" style="stop-color:#E2B755"/>
		<stop  offset="0.58" style="stop-color:#E2B755"/>
		<stop  offset="0.69" style="stop-color:#8F5D21"/>
		<stop  offset="1" style="stop-color:#E2B755"/>
	</linearGradient>
	<polygon clip-path="url(#SVGID_52_)" fill="url(#SVGID_53_)" points="27.174,86.937 28.772,85.547 30.155,87.136 28.557,88.526 	
		"/>
</g>
<g>
	<defs>
		<path id="SVGID_54_" d="M64.977,81.438c0.006,0.346,0.249,0.629,0.589,0.827c0.263,0.154,0.618,0.062,0.779-0.163
			c0.17-0.237,0.153-0.566-0.081-0.787c-0.176-0.164-0.379-0.314-0.597-0.416c-0.113-0.054-0.214-0.08-0.302-0.08
			C65.119,80.818,64.978,81.027,64.977,81.438"/>
	</defs>
	<clipPath id="SVGID_55_">
		<use xlink:href="#SVGID_54_"  overflow="visible"/>
	</clipPath>
	
		<linearGradient id="SVGID_56_" gradientUnits="userSpaceOnUse" x1="0" y1="125.626" x2="1" y2="125.626" gradientTransform="matrix(69.2026 -60.1919 -60.1919 -69.2026 7592.1353 8805.7969)">
		<stop  offset="0" style="stop-color:#EEC65F"/>
		<stop  offset="0.23" style="stop-color:#A76F2A"/>
		<stop  offset="0.33" style="stop-color:#E2B755"/>
		<stop  offset="0.58" style="stop-color:#E2B755"/>
		<stop  offset="0.69" style="stop-color:#8F5D21"/>
		<stop  offset="1" style="stop-color:#E2B755"/>
	</linearGradient>
	<polygon clip-path="url(#SVGID_55_)" fill="url(#SVGID_56_)" points="64.184,81.508 65.853,80.057 67.308,81.729 65.64,83.181 	"/>
</g>
<g>
	<defs>
		<path id="SVGID_57_" d="M12.335,59.498c-0.205,0.056-0.429,0.221-0.544,0.401c-0.136,0.214,0.117,0.863,0.325,1.008
			c0.286,0.202,0.497,0.159,0.627-0.164c0.097-0.241,0.139-0.503,0.174-0.637c-0.008-0.438-0.131-0.638-0.387-0.638
			C12.472,59.468,12.407,59.478,12.335,59.498"/>
	</defs>
	<clipPath id="SVGID_58_">
		<use xlink:href="#SVGID_57_"  overflow="visible"/>
	</clipPath>
	
		<linearGradient id="SVGID_59_" gradientUnits="userSpaceOnUse" x1="0" y1="125.627" x2="1" y2="125.627" gradientTransform="matrix(69.2016 -60.191 -60.191 -69.2016 7558.5107 8767.1377)">
		<stop  offset="0" style="stop-color:#EEC65F"/>
		<stop  offset="0.23" style="stop-color:#A76F2A"/>
		<stop  offset="0.33" style="stop-color:#E2B755"/>
		<stop  offset="0.58" style="stop-color:#E2B755"/>
		<stop  offset="0.69" style="stop-color:#8F5D21"/>
		<stop  offset="1" style="stop-color:#E2B755"/>
	</linearGradient>
	<polygon clip-path="url(#SVGID_58_)" fill="url(#SVGID_59_)" points="10.842,60.175 12.374,58.843 13.729,60.402 12.199,61.734 	
		"/>
</g>
<g>
	<defs>
		<path id="SVGID_60_" d="M66.129,38.431c-0.38,0.016-0.663,0.307-0.656,0.68c0.007,0.371,0.32,0.683,0.672,0.672
			c0.325-0.011,0.675-0.419,0.671-0.781c-0.004-0.299-0.325-0.571-0.664-0.571C66.145,38.431,66.137,38.431,66.129,38.431"/>
	</defs>
	<clipPath id="SVGID_61_">
		<use xlink:href="#SVGID_60_"  overflow="visible"/>
	</clipPath>
	
		<linearGradient id="SVGID_62_" gradientUnits="userSpaceOnUse" x1="0" y1="125.6279" x2="1" y2="125.6279" gradientTransform="matrix(69.2013 -60.1908 -60.1908 -69.2013 7571.1494 8781.7686)">
		<stop  offset="0" style="stop-color:#EEC65F"/>
		<stop  offset="0.23" style="stop-color:#A76F2A"/>
		<stop  offset="0.33" style="stop-color:#E2B755"/>
		<stop  offset="0.58" style="stop-color:#E2B755"/>
		<stop  offset="0.69" style="stop-color:#8F5D21"/>
		<stop  offset="1" style="stop-color:#E2B755"/>
	</linearGradient>
	<polygon clip-path="url(#SVGID_61_)" fill="url(#SVGID_62_)" points="64.791,39.018 66.237,37.761 67.495,39.207 66.049,40.464 	
		"/>
</g>
<g>
	<defs>
		<path id="SVGID_63_" d="M75.925,68.564c-0.01,0.303,0.276,0.606,0.582,0.617c0.384,0.013,0.742-0.317,0.755-0.698
			c0.011-0.306-0.243-0.531-0.625-0.558c-0.015-0.001-0.029-0.001-0.043-0.001C76.239,67.925,75.937,68.21,75.925,68.564"/>
	</defs>
	<clipPath id="SVGID_64_">
		<use xlink:href="#SVGID_63_"  overflow="visible"/>
	</clipPath>
	
		<linearGradient id="SVGID_65_" gradientUnits="userSpaceOnUse" x1="0" y1="125.626" x2="1" y2="125.626" gradientTransform="matrix(69.2035 -60.1927 -60.1927 -69.2035 7590.4771 8803.9238)">
		<stop  offset="0" style="stop-color:#EEC65F"/>
		<stop  offset="0.23" style="stop-color:#A76F2A"/>
		<stop  offset="0.33" style="stop-color:#E2B755"/>
		<stop  offset="0.58" style="stop-color:#E2B755"/>
		<stop  offset="0.69" style="stop-color:#8F5D21"/>
		<stop  offset="1" style="stop-color:#E2B755"/>
	</linearGradient>
	<polygon clip-path="url(#SVGID_64_)" fill="url(#SVGID_65_)" points="75.287,68.472 76.688,67.253 77.901,68.647 76.5,69.866 	"/>
</g>
<g>
	<defs>
		<path id="SVGID_66_" d="M15.404,72.152c-0.004,0.424,0.201,0.754,0.48,0.769c0.299,0.019,0.613-0.308,0.625-0.647
			c0.013-0.387-0.251-0.645-0.669-0.655c-0.006,0-0.011,0-0.017,0C15.544,71.618,15.408,71.793,15.404,72.152"/>
	</defs>
	<clipPath id="SVGID_67_">
		<use xlink:href="#SVGID_66_"  overflow="visible"/>
	</clipPath>
	
		<linearGradient id="SVGID_68_" gradientUnits="userSpaceOnUse" x1="0" y1="125.625" x2="1" y2="125.625" gradientTransform="matrix(69.2027 -60.192 -60.192 -69.2027 7566.0874 8775.8701)">
		<stop  offset="0" style="stop-color:#EEC65F"/>
		<stop  offset="0.23" style="stop-color:#A76F2A"/>
		<stop  offset="0.33" style="stop-color:#E2B755"/>
		<stop  offset="0.58" style="stop-color:#E2B755"/>
		<stop  offset="0.69" style="stop-color:#8F5D21"/>
		<stop  offset="1" style="stop-color:#E2B755"/>
	</linearGradient>
	<polygon clip-path="url(#SVGID_67_)" fill="url(#SVGID_68_)" points="14.746,72.187 16.039,71.063 17.176,72.37 15.883,73.494 	"/>
</g>
<g>
	<defs>
		<path id="SVGID_69_" d="M68.234,50.657c-0.294,0-0.526,0.204-0.538,0.476c-0.012,0.298,0.221,0.515,0.562,0.525
			c0.319,0.008,0.54-0.178,0.538-0.456c-0.002-0.286-0.267-0.545-0.56-0.545C68.235,50.657,68.235,50.657,68.234,50.657"/>
	</defs>
	<clipPath id="SVGID_70_">
		<use xlink:href="#SVGID_69_"  overflow="visible"/>
	</clipPath>
	
		<linearGradient id="SVGID_71_" gradientUnits="userSpaceOnUse" x1="0" y1="125.626" x2="1" y2="125.626" gradientTransform="matrix(69.1999 -60.1895 -60.1895 -69.1999 7577.8926 8789.5078)">
		<stop  offset="0" style="stop-color:#EEC65F"/>
		<stop  offset="0.23" style="stop-color:#A76F2A"/>
		<stop  offset="0.33" style="stop-color:#E2B755"/>
		<stop  offset="0.58" style="stop-color:#E2B755"/>
		<stop  offset="0.69" style="stop-color:#8F5D21"/>
		<stop  offset="1" style="stop-color:#E2B755"/>
	</linearGradient>
	<polygon clip-path="url(#SVGID_70_)" fill="url(#SVGID_71_)" points="67.185,51.092 68.318,50.105 69.298,51.231 68.164,52.218 	
		"/>
</g>
<g>
	<defs>
		<path id="SVGID_72_" d="M56.835,21.878c0.005,0.325,0.315,0.634,0.639,0.617c0.267-0.012,0.468-0.15,0.515-0.42
			c0.051-0.306-0.278-0.674-0.58-0.683c-0.009-0.001-0.018-0.001-0.027-0.001C57.058,21.391,56.831,21.591,56.835,21.878"/>
	</defs>
	<clipPath id="SVGID_73_">
		<use xlink:href="#SVGID_72_"  overflow="visible"/>
	</clipPath>
	
		<linearGradient id="SVGID_74_" gradientUnits="userSpaceOnUse" x1="0" y1="125.625" x2="1" y2="125.625" gradientTransform="matrix(69.2036 -60.1927 -60.1927 -69.2036 7559.1519 8767.9668)">
		<stop  offset="0" style="stop-color:#EEC65F"/>
		<stop  offset="0.23" style="stop-color:#A76F2A"/>
		<stop  offset="0.33" style="stop-color:#E2B755"/>
		<stop  offset="0.58" style="stop-color:#E2B755"/>
		<stop  offset="0.69" style="stop-color:#8F5D21"/>
		<stop  offset="1" style="stop-color:#E2B755"/>
	</linearGradient>
	<polygon clip-path="url(#SVGID_73_)" fill="url(#SVGID_74_)" points="56.276,21.874 57.519,20.792 58.595,22.029 57.352,23.111 	
		"/>
</g>
<g>
	<defs>
		<path id="SVGID_75_" d="M84.611,58.945c-0.202,0.013-0.488,0.336-0.492,0.559c-0.005,0.229,0.324,0.57,0.554,0.571
			c0.243,0.001,0.365-0.191,0.372-0.588c0.004-0.307-0.177-0.543-0.41-0.543C84.627,58.944,84.619,58.944,84.611,58.945"/>
	</defs>
	<clipPath id="SVGID_76_">
		<use xlink:href="#SVGID_75_"  overflow="visible"/>
	</clipPath>
	
		<linearGradient id="SVGID_77_" gradientUnits="userSpaceOnUse" x1="0" y1="125.626" x2="1" y2="125.626" gradientTransform="matrix(69.2027 -60.192 -60.192 -69.2027 7589.396 8802.6514)">
		<stop  offset="0" style="stop-color:#EEC65F"/>
		<stop  offset="0.23" style="stop-color:#A76F2A"/>
		<stop  offset="0.33" style="stop-color:#E2B755"/>
		<stop  offset="0.58" style="stop-color:#E2B755"/>
		<stop  offset="0.69" style="stop-color:#8F5D21"/>
		<stop  offset="1" style="stop-color:#E2B755"/>
	</linearGradient>
	<polygon clip-path="url(#SVGID_76_)" fill="url(#SVGID_77_)" points="83.553,59.432 84.646,58.481 85.609,59.588 84.517,60.539 	
		"/>
</g>
<g>
	<defs>
		<path id="SVGID_78_" d="M70.6,41.825c-0.074,0.291-0.101,0.616-0.053,0.911c0.034,0.204,0.266,0.278,0.494,0.202
			c0.288-0.095,0.455-0.343,0.384-0.685c-0.051-0.255-0.185-0.491-0.342-0.892C70.856,41.571,70.64,41.674,70.6,41.825"/>
	</defs>
	<clipPath id="SVGID_79_">
		<use xlink:href="#SVGID_78_"  overflow="visible"/>
	</clipPath>
	
		<linearGradient id="SVGID_80_" gradientUnits="userSpaceOnUse" x1="0" y1="125.626" x2="1" y2="125.626" gradientTransform="matrix(69.2015 -60.191 -60.191 -69.2015 7574.8296 8785.9053)">
		<stop  offset="0" style="stop-color:#EEC65F"/>
		<stop  offset="0.23" style="stop-color:#A76F2A"/>
		<stop  offset="0.33" style="stop-color:#E2B755"/>
		<stop  offset="0.58" style="stop-color:#E2B755"/>
		<stop  offset="0.69" style="stop-color:#8F5D21"/>
		<stop  offset="1" style="stop-color:#E2B755"/>
	</linearGradient>
	<polygon clip-path="url(#SVGID_79_)" fill="url(#SVGID_80_)" points="69.681,42.073 71.066,40.867 72.314,42.302 70.928,43.508 	
		"/>
</g>
<g>
	<defs>
		<path id="SVGID_81_" d="M43.673,93.315c0.264,0.559,0.495,1.153,1.093,1.462c0.076,0.038,0.203-0.024,0.306-0.04
			c-0.03-0.115-0.019-0.278-0.093-0.338c-0.698-0.564-1.086-1.274-1.128-2.179c-0.006-0.111-0.132-0.218-0.262-0.421
			C43.335,92.417,43.463,92.876,43.673,93.315"/>
	</defs>
	<clipPath id="SVGID_82_">
		<use xlink:href="#SVGID_81_"  overflow="visible"/>
	</clipPath>
	
		<linearGradient id="SVGID_83_" gradientUnits="userSpaceOnUse" x1="0" y1="125.627" x2="1" y2="125.627" gradientTransform="matrix(69.2016 -60.191 -60.191 -69.2016 7588.6196 8801.8477)">
		<stop  offset="0" style="stop-color:#EEC65F"/>
		<stop  offset="0.23" style="stop-color:#A76F2A"/>
		<stop  offset="0.33" style="stop-color:#E2B755"/>
		<stop  offset="0.58" style="stop-color:#E2B755"/>
		<stop  offset="0.69" style="stop-color:#8F5D21"/>
		<stop  offset="1" style="stop-color:#E2B755"/>
	</linearGradient>
	<polygon clip-path="url(#SVGID_82_)" fill="url(#SVGID_83_)" points="41.842,93.099 44.324,90.939 46.565,93.517 44.083,95.675 	
		"/>
</g>
<g>
	<defs>
		<path id="SVGID_84_" d="M61.057,95.296c-0.326,0.02-0.6,0.303-0.579,0.604c0.017,0.268,0.239,0.442,0.555,0.437
			c0.359-0.005,0.579-0.238,0.559-0.587c-0.017-0.275-0.219-0.455-0.499-0.455C61.081,95.295,61.069,95.295,61.057,95.296"/>
	</defs>
	<clipPath id="SVGID_85_">
		<use xlink:href="#SVGID_84_"  overflow="visible"/>
	</clipPath>
	
		<linearGradient id="SVGID_86_" gradientUnits="userSpaceOnUse" x1="0" y1="125.626" x2="1" y2="125.626" gradientTransform="matrix(69.204 -60.1932 -60.1932 -69.204 7597.3579 8811.8057)">
		<stop  offset="0" style="stop-color:#EEC65F"/>
		<stop  offset="0.23" style="stop-color:#A76F2A"/>
		<stop  offset="0.33" style="stop-color:#E2B755"/>
		<stop  offset="0.58" style="stop-color:#E2B755"/>
		<stop  offset="0.69" style="stop-color:#8F5D21"/>
		<stop  offset="1" style="stop-color:#E2B755"/>
	</linearGradient>
	<polygon clip-path="url(#SVGID_85_)" fill="url(#SVGID_86_)" points="59.938,95.746 61.115,94.723 62.131,95.892 60.955,96.915 	
		"/>
</g>
<g>
	<defs>
		<path id="SVGID_87_" d="M56.083,23.519c-0.629-0.326-1.063-0.771-1.217-1.566c-0.263-1.352,0.372-2.32,1.106-3.287
			c0.084-0.112,0.253-0.187,0.396-0.219c0.738-0.174,1.474,0.19,1.854,0.86c0.146,0.26,0.357,0.484,0.571,0.767
			c0.128-0.162,0.208-0.26,0.282-0.363c0.269-0.359,0.756-0.533,1.175-0.418c0.616,0.171,0.813,0.521,0.533,1.101
			c-0.159,0.33-0.427,0.611-0.662,0.9c-0.135,0.164-0.303,0.301-0.446,0.442c0.18,0.33,0.354,0.591,0.469,0.873
			c0.169,0.414,0.051,0.74-0.36,0.859c-0.719,0.211-1.447,0.413-2.175,0.413C57.099,23.881,56.59,23.782,56.083,23.519
			 M56.009,17.959c-0.358,0.081-0.592,0.296-0.762,0.595c-0.183,0.327-0.339,0.674-0.525,1c-0.347,0.605-0.463,1.238-0.328,1.929
			c0.077,0.391,0.122,0.794,0.133,1.192c0,0.026-0.01,0.059-0.012,0.088c0.323,0.42,0.64,0.853,0.944,1.297
			c0.088-0.009,0.182-0.033,0.289-0.099c0.077-0.048,0.254,0.046,0.377,0.095c1.354,0.527,2.674,0.259,3.978-0.185
			c0.47-0.16,0.678-0.562,0.584-1.064c-0.059-0.324-0.175-0.64-0.275-0.99c0.109-0.136,0.258-0.278,0.353-0.449
			c0.214-0.386,0.463-0.767,0.581-1.185c0.179-0.63-0.15-1.139-0.762-1.357c-0.511-0.186-1-0.179-1.476,0.109
			c-0.121,0.073-0.248,0.14-0.37,0.209c-0.621-0.985-1.239-1.287-1.934-1.287C56.55,17.857,56.287,17.897,56.009,17.959"/>
	</defs>
	<clipPath id="SVGID_88_">
		<use xlink:href="#SVGID_87_"  overflow="visible"/>
	</clipPath>
	
		<linearGradient id="SVGID_89_" gradientUnits="userSpaceOnUse" x1="0" y1="125.624" x2="1" y2="125.624" gradientTransform="matrix(69.2028 -60.1921 -60.1921 -69.2028 7558.8174 8767.5137)">
		<stop  offset="0" style="stop-color:#EEC65F"/>
		<stop  offset="0.23" style="stop-color:#A76F2A"/>
		<stop  offset="0.33" style="stop-color:#E2B755"/>
		<stop  offset="0.58" style="stop-color:#E2B755"/>
		<stop  offset="0.69" style="stop-color:#8F5D21"/>
		<stop  offset="1" style="stop-color:#E2B755"/>
	</linearGradient>
	<polygon clip-path="url(#SVGID_88_)" fill="url(#SVGID_89_)" points="50.928,20.754 58.396,14.259 64.855,21.686 57.389,28.181 	
		"/>
</g>
<g>
	<defs>
		<path id="SVGID_90_" d="M55.274,99.267c-1.15-0.027-2.014-1.008-1.78-2.057c0.138,0.019,0.298,0.002,0.422,0.061
			c0.379,0.185,0.75,0.385,1.111,0.604c0.378,0.229,0.58,0.595,0.71,1.01c0.152,0.484,0.323,0.962,0.493,1.456
			c-0.464,0.503-1.441,0.646-2.177,0.343c-0.518-0.212-0.999-0.955-0.893-2.016c0.439,0.311,0.804,0.594,1.195,0.835
			c0.181,0.11,0.406,0.183,0.618,0.198c0.014,0.001,0.028,0.001,0.041,0.001C55.271,99.701,55.346,99.522,55.274,99.267
			 M40.612,97.831c0.387-0.253,0.825-0.424,1.245-0.625c0.012-0.015,0.025-0.028,0.036-0.042c0.013-0.014,0.017-0.021,0.029-0.034
			c0.054-0.216,0.111-0.437,0.199-0.788c0.061,0.478,0.056,0.504-0.199,0.788c-0.004,0.016-0.009,0.035-0.013,0.051
			c-0.017,0.01-0.035,0.018-0.052,0.025c-0.902,1.114-1.954,2.04-3.324,2.705c-0.022-0.546,0.018-1.008,0.337-1.33
			c0.59-0.598,1.226-1.148,1.865-1.69c0.174-0.146,0.431-0.191,0.76-0.329c-0.114,0.366-0.354,0.38-0.521,0.483
			c-0.187,0.116-0.371,0.238-0.55,0.371c-0.266,0.195-0.542,0.382-0.783,0.608c-0.178,0.163-0.306,0.382-0.131,0.724
			C39.89,98.426,40.222,98.083,40.612,97.831 M59.857,98.765c-0.348-0.07-0.359-0.354-0.393-0.616
			c-0.016-0.132-0.003-0.267-0.003-0.475c0.02-0.441,0.02-0.441-0.506-0.457c-0.393-0.01-0.504-0.104-0.507-0.442
			c-0.007-0.77,0.982-2.103,1.702-2.295c0.656-0.175,1.129-0.009,1.561,0.597c0.258,0.361,0.481,0.749,0.7,1.136
			c0.249,0.441,0.211,0.9,0.026,1.355c-0.165,0.401-0.326,0.46-0.717,0.251c-0.531-0.283-0.533-0.283-0.882,0.224
			c-0.087,0.128-0.17,0.26-0.249,0.394c-0.137,0.231-0.321,0.348-0.56,0.348C59.974,98.783,59.917,98.777,59.857,98.765
			 M48.137,91.569c1,0.062,2.22,1.238,2.784,2.714c-0.13,0-0.335,0.018-0.339-0.002c-0.144-0.771-0.883-1.052-1.301-1.595
			c-0.04-0.054-0.152-0.054-0.247-0.086c-0.203,0.422,0.131,0.579,0.324,0.791c0.207,0.227,0.428,0.441,0.721,0.739
			C48.906,93.989,48.16,92.559,48.137,91.569 M54.679,91.743c-0.181-0.099-0.334-0.225-0.242-0.54
			c0.545-0.151,1.063,0.065,1.556,0.267c0.421,0.169,0.793,0.456,1.182,0.695c0.07,0.044,0.132,0.101,0.197,0.151
			c-0.017,0.046-0.032,0.091-0.048,0.137C56.391,92.421,55.509,92.187,54.679,91.743 M67.63,90.963
			c0.087-0.031,0.136-0.065,0.166-0.054c0.932,0.359,1.916,0.317,2.886,0.429c0.662,0.075,1.3,0.414,1.932,0.677
			c0.164,0.068,0.309,0.271,0.385,0.442c0.245,0.549,0.262,1.147,0.423,1.753c-1.555,0.647-3.035,0.969-4.593,0.329
			c-0.61-0.251-0.959-0.695-1.056-1.346c-0.046-0.306-0.108-0.608-0.132-0.937c0.472,0.601,1.058,1.053,1.715,1.405
			c0.31,0.165,0.648,0.294,0.988,0.385c0.336,0.089,0.571-0.051,0.632-0.321c0.074-0.313-0.069-0.501-0.404-0.603
			c-0.043,0.161-0.079,0.296-0.116,0.431C69.177,93.34,67.922,92.192,67.63,90.963 M63.149,89.717
			c-0.778-0.119-1.484-0.412-2.072-1.215c1.257-0.169,2.162,0.208,2.985,0.976c-0.145,0.23-0.331,0.288-0.518,0.288
			C63.408,89.766,63.271,89.735,63.149,89.717 M64.434,85.566c-0.081-0.069-0.19-0.11-0.292-0.15
			c-1.085-0.421-1.567-0.915-1.974-2.078c0.24,0.072,0.437,0.129,0.632,0.194c0.421,0.139,0.833,0.275,1.298,0.149
			c0.171-0.046,0.393,0.03,0.573,0.1c0.453,0.178,0.899,0.372,1.34,0.578c0.265,0.123,0.471,0.313,0.522,0.695
			c-0.752-0.029-1.36-0.266-1.868-0.779c-0.154-0.155-0.247-0.451-0.57-0.326c0.049,0.583,0.105,0.628,2.024,1.667
			c-0.333,0.15-0.634,0.25-0.917,0.25C64.935,85.866,64.683,85.779,64.434,85.566 M73.461,84.034
			c-0.076-0.39-0.144-0.782-0.191-1.177c-0.023-0.19-0.038-0.405,0.025-0.58c0.136-0.38,0.419-0.433,0.708-0.142
			c0.38,0.382,0.672,0.817,0.728,1.379c0.084,0.843,0.037,1.676-0.196,2.524C73.952,85.477,73.606,84.807,73.461,84.034
			 M67.81,79.064c0.769-0.815,1.796-1.079,2.775-1.328c1.473-0.376,3.243-0.206,3.893,0.274c-0.23,0.11-0.407,0.232-0.602,0.283
			c-1.016,0.266-2.048,0.386-3.1,0.321c-0.229-0.016-0.482-0.109-0.715,0.21c0.681,0.227,1.33,0.174,1.969,0.122
			c0.653-0.054,1.301-0.156,2.066-0.25c-0.753,0.7-2.05,1.133-3.404,1.133C69.698,79.83,68.673,79.596,67.81,79.064 M77.882,77.083
			c-0.379-0.952-0.253-1.904,0.395-2.815c0.397,0.216,0.539,0.5,0.594,0.802c0.192,1.049,0.359,2.103,0.529,3.155
			c0.017,0.104,0.002,0.215,0.002,0.414C78.513,78.432,78.146,77.749,77.882,77.083 M74.42,73.569
			c0.002-0.441,0.295-0.733,0.602-0.949c0.937-0.658,2.015-0.999,3.123-1.252c0.057-0.015,0.126,0.023,0.259,0.055
			c-1.094,1.175-2.403,2.206-3.532,2.206C74.717,73.629,74.567,73.61,74.42,73.569 M83.714,69.741
			c-1.017-0.907-1.872-1.926-2.697-3.091c1.338,0.059,2.323,0.589,3.047,1.518c0.488,0.628,0.855,1.351,1.261,2.039
			c0.089,0.151,0.128,0.333,0.169,0.505c0.117,0.502-0.043,0.684-0.551,0.571c-0.93-0.209-1.746-0.672-2.446-1.302
			c-0.77-0.689-1.393-1.498-1.636-2.722c0.529,0.597,0.953,1.084,1.388,1.563c0.297,0.33,0.597,0.659,0.915,0.967
			c0.074,0.071,0.119,0.105,0.179,0.105C83.417,69.896,83.513,69.843,83.714,69.741 M75.389,63.953
			c0.165-0.658,0.656-1.055,1.156-1.435c0.507-0.383,1.084-0.408,1.807-0.305c-0.577,0.644-1.275,0.558-1.892,0.742
			c0.311,0.274,0.311,0.274,1.47,0.153c-0.288,0.535-1.193,0.943-1.959,0.943C75.762,64.051,75.563,64.02,75.389,63.953
			 M83.707,61.595c-0.448-0.471-0.895-0.998-0.946-1.715c-0.046-0.639,0.008-1.235,0.624-1.624c0.148-0.092,0.255-0.247,0.401-0.343
			c0.873-0.577,1.537-0.564,2.397,0.04c0.146,0.102,0.287,0.211,0.426,0.321c0.543,0.43,0.555,0.97,0.034,1.45
			c-0.066,0.06-0.15,0.101-0.21,0.165c-0.154,0.166-0.152,0.363,0.065,0.423c0.385,0.103,0.638,0.293,0.682,0.705
			c0.049,0.465-0.035,0.884-0.421,1.199c-0.051,0.042-0.101,0.086-0.246,0.212c-0.423-0.391-0.823-0.759-1.208-1.113
			c-0.076,0.028-0.138,0.032-0.152,0.062c-0.217,0.389-0.472,0.596-0.754,0.596C84.182,61.973,83.95,61.851,83.707,61.595
			 M76.766,54.731c-0.388,0.397-0.838,0.684-1.352,0.864c-0.167,0.057-0.405,0.062-0.323,0.31c0.095,0.283,0.325,0.154,0.501,0.074
			c0.342-0.156,0.675-0.333,1.014-0.494c0.078-0.036,0.169-0.044,0.331-0.083c-0.091,0.29-0.243,0.465-0.451,0.563
			c-0.498,0.237-1,0.476-1.521,0.656c-0.179,0.063-0.454,0.015-0.626-0.085c-0.367-0.21-0.644-0.522-0.751-0.996
			c0.61-0.109,1.163-0.166,1.693-0.312C75.781,55.091,76.256,54.864,76.766,54.731L76.766,54.731 M79.975,46.65
			c0.399-0.33,0.794-0.393,1.178-0.458c0.929-0.157,1.817,0.039,2.683,0.356c0.145,0.053,0.292,0.133,0.399,0.24
			c0.548,0.549,1.081,1.11,1.66,1.711c-0.383,0.39-0.844,0.484-1.296,0.475c-1.093-0.024-2.179-0.114-3.174-0.654
			c-0.249-0.137-0.539-0.199-0.816-0.281c-0.581-0.173-1.083-0.451-1.355-1.107c0.297,0.108,0.595,0.216,0.894,0.321
			c0.713,0.249,1.422,0.515,2.144,0.732c0.414,0.125,0.837,0.117,1.159-0.457c-0.117,0.005-0.233,0.008-0.347,0.008
			C81.986,47.536,80.978,47.265,79.975,46.65 M74.467,48.997c-0.338-0.449-0.354-0.98-0.223-1.497
			c0.254-1.024,0.769-1.919,1.45-2.717c0.055,0.018,0.111,0.037,0.167,0.056c-0.114,0.375-0.177,0.776-0.359,1.114
			c-0.178,0.333-0.476,0.603-0.732,0.913c0.452,0.104,0.88-0.103,1.109-0.587c0.188-0.396,0.299-0.828,0.463-1.298
			c0.031,0.153,0.103,0.294,0.079,0.415c-0.222,1.159-0.511,2.294-1.248,3.259c-0.154,0.204-0.326,0.348-0.605,0.348
			C74.536,49.003,74.502,49.001,74.467,48.997 M70.207,45.015c-0.549-0.275-0.842-0.805-0.784-1.425
			c0.013-0.152,0.045-0.303,0.068-0.448c-0.643-0.328-0.69-0.34-0.501-1.015c0.161-0.572,0.389-1.142,0.691-1.652
			c0.386-0.65,1.478-0.685,2.136-0.127c0.967,0.817,1.42,1.859,1.358,3.123c-0.007,0.134-0.022,0.268-0.059,0.395
			c-0.183,0.624-0.778,0.843-1.313,0.485c-0.177-0.119-0.341-0.262-0.581-0.448c-0.134,0.35-0.225,0.616-0.336,0.873
			c-0.105,0.236-0.203,0.342-0.352,0.342C70.446,45.118,70.341,45.082,70.207,45.015 M78.331,40.689
			c-0.281-0.097-0.493-0.187-0.711-0.243c-0.475-0.124-0.958-0.211-1.427-0.347c-0.471-0.136-0.93-0.311-1.247-0.839
			c0.967-0.452,1.922-0.799,2.919-0.237c0.801,0.452,1.545,1.008,2.36,1.548c-0.974,0.537-1.894,1.013-2.991,0.381
			c0.123-0.05,0.257-0.026,0.395-0.002c0.077,0.013,0.156,0.026,0.234,0.026C78.025,40.976,78.185,40.919,78.331,40.689
			 M71.046,32.8c0.676-1.512,2.615-1.322,3.817-0.39c-0.573,1.15-2.517,1.703-3.737,1.007c0.837-0.31,1.673-0.258,2.417-0.59
			c0.017-0.009,0.006-0.081,0.012-0.17c-0.529-0.246-1.046-0.123-1.564,0.001c-0.299,0.071-0.599,0.142-0.902,0.142
			C71.075,32.8,71.06,32.8,71.046,32.8 M64.191,30.643c0.339,0.576,0.409,1.198,0.367,1.794c-0.042,0.592-0.252,1.171-0.395,1.794
			c0.447,0.041,0.626-0.217,0.693-0.518c0.096-0.431,0.129-0.876,0.173-1.317c0.021-0.217,0.002-0.44,0.002-0.67
			c0.765,1.18,0.844,3.226-0.782,4.697C63.224,35.127,63.184,31.987,64.191,30.643 M67.837,26.022
			c-0.055,0.932-1.099,1.525-2.565,1.302c0.171-0.068,0.344-0.14,0.518-0.204c0.125-0.046,0.27-0.055,0.376-0.125
			c0.077-0.049,0.15-0.182,0.137-0.262c-0.015-0.076-0.148-0.184-0.224-0.182c-0.259,0.011-0.516,0.064-0.782,0.102
			C65.801,25.809,66.794,25.564,67.837,26.022 M56.503,25.785c0.901,0.334,1.795,0.688,2.683,1.053
			c0.857,0.352,1.637,0.89,2.449,1.347c0.637,0.36,1.284,0.708,1.902,1.1c0.224,0.143,0.38,0.393,0.541,0.568
			c-0.642,0.734-0.848,1.548-0.99,2.38c-0.225,1.332,0.114,2.606,0.441,3.882c0.075,0.286,0.113,0.581,0.19,0.995
			c0.173,0.148,0.445,0.126,0.672-0.106c0.841-0.853,1.559-1.773,1.594-3.051c0.02-0.741-0.029-1.468-0.289-2.17
			c-0.105-0.285-0.189-0.579-0.294-0.904c0.34-0.064,0.476,0.153,0.611,0.291c0.824,0.841,1.702,1.634,2.438,2.552
			c0.619,0.77,1.126,1.634,1.973,2.164c0.368,0.309,0.664,0.714,0.959,1.102c0.129,0.169,0.215,0.396,0.248,0.607
			c0.05,0.328,0.063,0.667,0.045,0.996c-0.048,1.005-0.227,0.935-0.92,0.909c-0.732-0.027-1.284,0.286-1.592,0.986
			c-0.285,0.651-0.589,1.294-0.889,1.938c-0.148,0.316-0.069,0.576,0.211,0.753c0.345,0.22,0.506,0.483,0.523,0.919
			c0.023,0.632,0.8,1.387,1.426,1.521c0.275,0.059,0.485-0.015,0.648-0.231c0.133-0.175,0.254-0.362,0.388-0.559
			c0.095,0.009,0.192-0.008,0.263,0.027c0.641,0.319,1.143,0.111,1.621-0.358c0.227-0.224,0.337-0.446,0.342-0.755
			c0.019-1.34-0.274-2.568-1.289-3.522c-0.274-0.257-0.357-0.524-0.296-0.891c0.074-0.456,0.084-0.92,0.129-1.461
			c0.421,0.267,0.669,0.606,0.884,0.948c0.627,0.997,1.225,2.012,1.831,3.023c0.239,0.4,0.466,0.808,0.702,1.21
			c0.2,0.34,0.187,0.627-0.059,0.976c-0.692,0.982-1.389,1.971-1.67,3.17c-0.076,0.319-0.118,0.655-0.115,0.982
			c0.005,0.435,0.069,0.871,0.115,1.378c0.594,0.109,1.093-0.138,1.488-0.576c0.517-0.568,0.822-1.266,1.053-1.991
			c0.167-0.527,0.304-1.061,0.456-1.601c0.344-0.01,0.431,0.253,0.532,0.453c0.342,0.673,0.659,1.359,0.986,2.042
			c0.181,0.381,0.356,0.766,0.535,1.151c0.525,1.135,0.505,2.273,0.029,3.42c-0.246,0.597-0.784,0.936-1.281,1.205
			c-0.914,0.493-1.899,0.863-2.877,1.226c-0.499,0.187-1.038,0.219-1.555-0.065c-0.114-0.061-0.351-0.009-0.465,0.078
			c-0.066,0.049-0.053,0.309,0.016,0.414c0.294,0.442,0.611,0.87,0.94,1.289c0.421,0.536,0.965,0.567,1.567,0.354
			c1.111-0.391,1.939-1.147,2.67-2.035c0.569-0.695,0.991-1.476,1.355-2.291c0.095-0.211,0.229-0.403,0.376-0.653
			c0.116,0.142,0.206,0.2,0.221,0.274c0.21,1.04,0.494,2.057,0.299,3.156c-0.111,0.614,0.055,1.28,0.116,1.92
			c0.056,0.575,0.11,1.153,0.219,1.719c0.177,0.916-0.317,1.632-0.669,2.386c-0.165,0.359-0.536,0.33-0.877,0.34
			c-0.596,0.017-1.2,0.025-1.789,0.104c-0.689,0.094-1.229,0.475-1.658,1.03c-0.306,0.399-0.645,0.776-0.995,1.194
			c0.096,0.091,0.173,0.213,0.281,0.251c0.536,0.19,1.084,0.271,1.633,0.063c0.73-0.273,1.453-0.562,2.051-1.084
			c0.665-0.579,1.333-1.155,2.042-1.768c-0.126,0.733-0.251,1.467-0.379,2.199c-0.136,0.789-0.287,1.575-0.405,2.369
			c-0.044,0.294-0.127,0.626,0.225,0.838c0.057,0.033,0.098,0.161,0.085,0.234c-0.112,0.63,0.005,1.293-0.343,1.889
			c-0.247,0.419-0.44,0.873-0.638,1.319c-0.122,0.275-0.315,0.391-0.61,0.438c-1.224,0.196-2.331,0.725-3.429,1.264
			c-0.249,0.123-0.434,0.375-0.647,0.568c-0.239,0.217-0.475,0.438-0.738,0.633c-0.127,0.211-0.017,0.391,0.183,0.46
			c0.309,0.104,0.647,0.239,0.957,0.203c0.709-0.083,1.388-0.29,1.962-0.766c0.446-0.368,0.918-0.702,1.385-1.041
			c0.118-0.086,0.258-0.138,0.432-0.229c0.085,0.604-0.205,1.022-0.535,1.354c-0.32,0.321-0.453,0.686-0.585,1.091
			c-0.386,1.174-1.06,2.194-1.782,3.183c-0.161,0.222-0.405,0.222-0.604,0.117c-1.016-0.531-2.118-0.439-3.202-0.48
			c-0.994-0.037-1.944,0.113-2.85,0.566c-0.615,0.308-1.281,0.501-1.799,0.994c-0.13,0.125-0.352,0.156-0.527,0.229
			c-0.093,0.226,0.002,0.347,0.21,0.398c1.166,0.289,2.328,0.59,3.499,0.851c0.273,0.06,0.578,0.012,0.86-0.044
			c0.698-0.14,1.393-0.295,2.083-0.475c0.232-0.058,0.444-0.194,0.658-0.31c0.224-0.121,0.439-0.259,0.692-0.345
			c-0.162,0.609-0.476,1.107-0.857,1.564c-0.187,0.225-0.206,0.208-0.891,0.146c-0.102,0.323-0.27,0.65-0.299,0.99
			c-0.039,0.439-0.259,0.743-0.532,1.042c-0.359,0.395-0.753,0.764-1.065,1.194c-0.533,0.731-1.29,0.963-2.116,1.081
			c-0.285,0.041-0.577,0.027-0.865,0.06c-0.536,0.063-0.932-0.094-1.232-0.583c-0.153-0.246-0.444-0.429-0.705-0.581
			c-0.915-0.532-1.894-0.856-2.963-0.94c-0.398-0.031-0.779-0.267-1.165-0.415c-0.151-0.057-0.292-0.132-0.55-0.25
			c0.018,0.301,0.009,0.473,0.046,0.633c0.098,0.435,0.208,0.864,0.335,1.289c0.042,0.14,0.131,0.278,0.231,0.389
			c0.703,0.795,1.622,1.235,2.621,1.507c0.508,0.135,1.052,0.038,1.493-0.221c0.675-0.395,1.383-0.45,2.124-0.421
			c0.298,0.011,0.6,0.011,1.021,0.02c-0.715,0.885-1.633,1.277-2.361,1.902c-0.738,0.633-1.552,1.176-2.296,1.731
			c-0.609-0.313-1.131-0.61-1.676-0.857c-0.685-0.311-1.41-0.401-2.154-0.249c-0.375,0.078-0.43,0.218-0.24,0.555
			c0.384,0.68,1.001,1.051,1.713,1.295c0.25,0.086,0.503,0.155,0.835,0.259c-0.142,0.143-0.221,0.278-0.339,0.332
			c-0.462,0.212-0.938,0.392-1.406,0.593c-0.205,0.085-0.399,0.193-0.601,0.287c-0.518,0.245-1.031,0.511-1.567,0.712
			c-0.175,0.067-0.485,0.046-0.617-0.07c-0.707-0.62-1.583-0.779-2.448-0.987c-0.43-0.104-0.866-0.201-1.3-0.306
			c-0.404-0.097-0.791-0.07-1.174,0.177c0.017,0.647,0.367,1.074,0.943,1.302c0.534,0.211,1.093,0.363,1.645,0.534
			c0.227,0.071,0.458,0.124,0.852,0.228c-0.321,0.14-0.487,0.222-0.663,0.283c-0.731,0.262-1.452,0.551-2.198,0.764
			c-0.89,0.256-1.8,0.448-2.716,0.672c-0.8-1.921-1.956-3.377-3.942-3.988c-0.332,0.473-0.074,1.592,0.5,2.647
			c0.513,0.942,1.484,1.122,2.455,1.575c-1.659,0.322-3.196,0.366-4.83,0.394c0.047-0.259,0.072-0.469,0.124-0.672
			c0.403-1.632,0.011-2.987-1.366-4.017c-0.43-0.324-0.844-0.667-1.268-0.996c-0.132,0.104-0.262,0.203-0.394,0.301
			c0.968,0.559,1.862,1.221,2.401,2.279c0.543,1.062,0.382,2.267-0.402,3.278c-0.165-0.07-0.382-0.106-0.516-0.229
			c-0.901-0.834-1.752-1.724-2.122-2.926c-0.173-0.563-0.208-1.173-0.252-1.769c-0.157,0.106-0.312,0.206-0.466,0.305
			c0.121,1.102,0.261,2.199,1.058,3.098c0.44,0.495,0.853,1.013,1.357,1.614c-0.935,0.012-1.791,0.021-2.646,0.029
			c-0.045,0.001-0.09-0.001-0.135-0.002c-0.215-0.008-0.423-0.016-0.601,0.193c-0.076,0.089-0.288,0.096-0.433,0.085
			c-0.332-0.021-0.661-0.077-1.017-0.122c-0.056-0.125-0.123-0.236-0.159-0.359c-0.156-0.537-0.309-1.075-0.465-1.613
			c-0.134,0.532-0.265,1.066-0.402,1.598c-0.015,0.06-0.028,0.113-0.044,0.171c0.043,0.048,0.078,0.091,0.121,0.139
			c-0.03,0.002-0.056,0.001-0.082-0.002c-0.023-0.002-0.047-0.004-0.071-0.003c-0.045,0.17-0.085,0.334-0.128,0.503
			c0.311,0.024,0.624,0.04,0.941,0.042c0.044,0.001,0.09,0.001,0.135,0c0.398-0.001,0.837-0.003,1.225,0.285
			c-0.454,0.455-0.859,0.896-1.301,1.299c-0.595,0.542-0.848,1.239-0.992,1.994c-0.109,0.586,0.111,0.792,0.639,0.549
			c0.501-0.229,1.004-0.495,1.431-0.838c1.05-0.848,2.193-1.617,2.766-2.916c0.206-0.472,0.535-0.648,1.06-0.59
			c0.483,0.052,1.007,0.11,1.458-0.023c0.945-0.278,1.892-0.236,2.848-0.219c0.118,0.001,0.236,0.058,0.432,0.11
			c-0.299,0.443-0.563,0.82-0.812,1.209c-0.331,0.518-0.332,0.522-0.975,0.42c-1.172-0.188-1.935,0.183-2.504,1.201
			c-0.235,0.419-0.369,0.827,0.073,1.163c-0.139,0.365-0.284,0.688-0.388,1.024c-0.185,0.61,0.15,1.346,0.785,1.775
			c0.422,0.284,0.936,0.22,1.478-0.196c0.21-0.162,0.407-0.338,0.6-0.5c0.81,0.526,1.242,0.396,1.633-0.473
			c0.173-0.386,0.348-0.77,0.498-1.163c0.052-0.138,0.064-0.311,0.036-0.456c-0.138-0.722-0.601-1.228-1.174-1.639
			c-0.167-0.119-0.339-0.104-0.435,0.21c0.151,0.114,0.335,0.231,0.486,0.379c0.362,0.363,0.765,0.737,0.632,1.313
			c-0.094,0.409-0.281,0.798-0.444,1.185c-0.097,0.226-0.237,0.516-0.513,0.407c-0.181-0.069-0.281-0.354-0.404-0.55
			c-0.032-0.051,0.002-0.143-0.029-0.194c-0.061-0.105-0.145-0.199-0.22-0.296c-0.088,0.108-0.185,0.21-0.263,0.324
			c-0.033,0.051-0.03,0.13-0.037,0.194c-0.077,0.584-0.519,0.856-0.965,1.114c-0.239,0.141-0.466,0.061-0.681-0.101
			c-0.733-0.558-0.709-1.616,0.058-2.168c0.154-0.112,0.325-0.196,0.589-0.352c-0.214-0.108-0.331-0.188-0.457-0.231
			c-0.159-0.053-0.327-0.076-0.489-0.111c0.172-1.05,0.727-1.52,1.688-1.458c0.331,0.021,0.659,0.104,0.991,0.132
			c0.248,0.023,0.482-0.013,0.627-0.274c0.343-0.62,0.715-1.225,1.049-1.851c0.11-0.207,0.257-0.264,0.467-0.305
			c0.983-0.192,1.958-0.409,2.939-0.604c0.55-0.108,1.099-0.265,1.761-0.213c-0.262,0.377-0.462,0.695-0.693,0.989
			c-0.976,1.236-0.981,2.627-0.619,4.055c0.302,1.188,1.174,1.5,2.33,1.338c0.544-0.074,1.067-0.306,1.591-0.492
			c0.188-0.069,0.35-0.219,0.523-0.33c0.022-0.049,0.044-0.102,0.065-0.151c-0.961-0.211-1.047-0.976-1.235-1.68
			c-0.12-0.454-0.406-0.79-0.809-1.02c-0.423-0.242-0.861-0.462-1.291-0.694c-0.146-0.081-0.287-0.176-0.469-0.284
			c0.357-0.532,0.68-1.009,0.998-1.489c0.438-0.665,1.057-1.049,1.824-1.249c0.467-0.124,0.923-0.311,1.367-0.511
			c0.442-0.204,0.861-0.467,1.281-0.26c0.782-0.771,1.778-0.833,2.713-1.262c-0.343,0.712-0.606,1.322-0.93,1.896
			c-0.089,0.159-0.351,0.277-0.548,0.306c-0.674,0.097-1.146,0.458-1.489,1.016c-0.255,0.417-0.507,0.838-0.743,1.267
			c-0.273,0.496-0.083,1.102,0.422,1.361c0.157,0.081,0.327,0.13,0.5,0.193c0.024,0.22,0.058,0.416,0.065,0.614
			c0.019,0.607,0.663,0.883,1.098,0.808c0.351-0.062,0.604-0.268,0.812-0.544c0.128-0.172,0.263-0.338,0.392-0.505
			c0.244,0.105,0.421,0.204,0.609,0.26c0.702,0.203,1.361-0.392,1.254-1.116c-0.169-1.158-0.616-2.177-1.492-2.974
			c-0.221-0.203-0.27-0.42-0.271-0.706c-0.007-0.524,0.324-0.881,0.613-1.226c0.323-0.385,0.178-0.968,0.592-1.272
			c0.392-0.288,0.83-0.512,1.231-0.79c0.854-0.598,1.695-1.215,2.547-1.814c0.113-0.08,0.259-0.118,0.44-0.197
			c0,0.446-0.026,0.82,0.006,1.188c0.079,0.9,0.17,1.801,0.289,2.695c0.058,0.439,0.158,0.877,0.29,1.3
			c0.139,0.442,0.264,0.939,0.732,1.147c0.505,0.225,1.032,0.444,1.57,0.533c1.356,0.225,2.647-0.188,3.938-0.531
			c0.316-0.083,0.332-0.327,0.276-0.585c-0.1-0.455-0.225-0.907-0.32-1.365c-0.129-0.615-0.496-1.007-1.057-1.281
			c-0.942-0.463-1.928-0.666-2.971-0.641c-0.64,0.014-1.228-0.191-1.797-0.457c-0.29-0.135-0.538-0.336-0.521-0.705
			c0.019-0.444-0.005-0.904,0.107-1.328c0.092-0.344,0.306-0.694,0.556-0.952c0.355-0.362,0.805-0.628,1.193-0.961
			c0.555-0.479,1.107-0.962,1.631-1.474c0.539-0.528,1.041-1.097,1.564-1.642c0.132-0.134,0.243-0.339,0.503-0.229
			c0.022,0.061,0.054,0.12,0.07,0.184c0.026,0.108,0.059,0.219,0.061,0.328c0.007,1.026,0.497,1.877,1.002,2.719
			c0.111,0.188,0.244,0.377,0.397,0.532c0.267,0.265,0.61,0.185,0.741-0.165c0.046-0.121,0.051-0.261,0.059-0.393
			c0.031-0.532,0.051-1.063,0.086-1.598c0.068-1.014-0.109-1.949-0.821-2.73c-0.159-0.176-0.289-0.382-0.441-0.583
			c0.179-0.284,0.339-0.523,0.486-0.771c0.602-1.011,1.193-2.029,1.804-3.035c0.255-0.421,0.473-0.884,0.927-1.182
			c0.57,1.813,1.607,2.874,2.798,2.825c-0.028-0.262-0.043-0.52-0.085-0.776c-0.16-0.987-0.329-1.972-0.49-2.96
			c-0.085-0.516-0.246-0.991-0.6-1.39c-0.114-0.13-0.205-0.28-0.253-0.35c0.259-0.723,0.576-1.351,0.703-2.018
			c0.239-1.244,0.906-2.301,1.313-3.455c0.069,0.012,0.099,0.01,0.109,0.022c0.082,0.129,0.168,0.258,0.242,0.394
			c0.503,0.917,1.233,1.636,2.089,2.201c0.742,0.487,1.524,0.938,2.475,0.876c0.339-0.023,0.655-0.075,0.849-0.383
			c-0.136-0.241-0.293-0.44-0.363-0.664c-0.247-0.821-0.704-1.532-1.169-2.235c-0.695-1.055-1.564-1.865-2.87-2.108
			c-0.542-0.1-1.127-0.233-1.067-1.007c-0.276-0.32-0.287-0.71-0.19-1.075c0.211-0.799,0.198-1.617,0.278-2.427
			c0.131-1.319,0.045-2.619-0.131-3.925c-0.051-0.379-0.041-0.769-0.066-1.319c0.568,0.527,0.985,0.951,1.443,1.324
			c0.318,0.258,0.43,0.518,0.305,0.919c-0.155,0.498-0.177,1.027,0.029,1.508c0.215,0.51,0.484,1.006,0.798,1.458
			c0.147,0.213,0.446,0.34,0.701,0.448c0.479,0.202,0.953,0.121,1.387-0.153c0.173,0.125,0.327,0.216,0.458,0.333
			c0.581,0.52,0.822,0.368,1.309-0.094c0.178-0.17,0.299-0.442,0.361-0.689c0.16-0.616,0.003-1.186-0.393-1.692
			c0.055-0.121,0.103-0.218,0.143-0.321c0.352-0.88,0.256-1.223-0.506-1.802c-0.107-0.08-0.202-0.173-0.312-0.252
			c-0.994-0.702-1.964-0.704-2.961-0.011c-0.5,0.346-0.718,0.359-1.181-0.042c-0.435-0.38-0.839-0.797-1.244-1.21
			c-0.276-0.284-0.39-0.628-0.383-1.034c0.011-0.465,0.004-0.937-0.054-1.399c-0.247-1.934-0.856-3.765-1.613-5.553
			c-0.117-0.276-0.209-0.564-0.314-0.848c0.502,0.204,0.883,0.51,1.308,0.73c0.431,0.224,0.92,0.335,1.36,0.546
			c1.078,0.513,2.219,0.666,3.384,0.586c0.475-0.032,0.949-0.218,1.402-0.397c0.22-0.087,0.387-0.314,0.544-0.447
			c-0.771-0.726-1.473-1.4-2.188-2.058c-0.161-0.149-0.35-0.299-0.553-0.366c-1.088-0.362-2.192-0.628-3.334-0.259
			c-0.531,0.17-1.054,0.358-1.568,0.569c-0.633,0.258-0.664,0.213-1.06-0.346c-0.684-0.969-1.081-2.097-1.884-3.01
			c-0.567-0.645-0.876-1.516-1.332-2.348c0.927,0.295,1.744,0.56,2.564,0.813c0.536,0.167,1.09,0.324,1.633,0.096
			c0.738-0.309,1.459-0.656,2.178-1.007c0.167-0.08,0.362-0.2,0.294-0.454c-0.043-0.028-0.081-0.074-0.115-0.071
			c-0.819,0.048-1.507-0.254-2.139-0.752c-0.293-0.233-0.638-0.402-0.956-0.605c-0.92-0.591-1.876-0.619-2.87-0.199
			c-0.507,0.214-1.022,0.41-1.577,0.632c-0.324-0.444-0.607-0.867-0.923-1.266c-0.509-0.641-1.011-1.291-1.565-1.89
			c-0.389-0.419-0.887-0.733-1.291-1.14c-0.405-0.409-0.754-0.875-1.13-1.316c-0.127-0.149-0.259-0.294-0.147-0.601
			c0.398,0.13,0.781,0.224,1.138,0.377c0.548,0.236,1.078,0.514,1.617,0.772c0.638,0.307,1.25,0.173,1.87-0.081
			c0.86-0.353,1.568-0.924,2.241-1.54c0.161-0.144,0.392-0.306,0.272-0.649c-0.658,0.176-1.217-0.114-1.791-0.342
			c-0.227-0.092-0.461-0.173-0.699-0.219c-0.728-0.141-1.427-0.057-2.048,0.371c-0.292,0.201-0.58,0.432-0.797,0.708
			c-0.303,0.384-0.655,0.405-1.071,0.286c-0.403-0.117-0.814-0.325-1.215-0.311c-0.378,0.013-0.574-0.141-0.796-0.361
			c-0.983-0.97-2.008-1.888-3.162-2.657c-0.488-0.326-0.941-0.702-1.485-1.112c0.801-0.256,1.483-0.484,2.239-0.334
			c0.697,0.137,1.37-0.002,2.029-0.239c0.776-0.279,1.104-0.989,1.53-1.598c0.043-0.06-0.077-0.339-0.165-0.367
			c-0.549-0.166-1.119-0.43-1.664-0.394c-1.094,0.067-1.98,0.63-2.566,1.583c-0.189,0.307-0.425,0.508-0.77,0.585
			c-0.323,0.073-0.649,0.16-0.979,0.189c-0.468,0.038-0.89-0.047-1.332-0.294c-1.379-0.764-2.803-1.448-4.312-1.936
			c-0.231-0.074-0.466-0.154-0.699-0.232C56.29,25.369,56.392,25.578,56.503,25.785"/>
	</defs>
	<clipPath id="SVGID_91_">
		<use xlink:href="#SVGID_90_"  overflow="visible"/>
	</clipPath>
	
		<linearGradient id="SVGID_92_" gradientUnits="userSpaceOnUse" x1="0" y1="125.6064" x2="1" y2="125.6064" gradientTransform="matrix(69.2028 -60.192 -60.192 -69.2028 7581.1294 8793.1289)">
		<stop  offset="0" style="stop-color:#EEC65F"/>
		<stop  offset="0.23" style="stop-color:#A76F2A"/>
		<stop  offset="0.33" style="stop-color:#E2B755"/>
		<stop  offset="0.58" style="stop-color:#E2B755"/>
		<stop  offset="0.69" style="stop-color:#8F5D21"/>
		<stop  offset="1" style="stop-color:#E2B755"/>
	</linearGradient>
	<polygon clip-path="url(#SVGID_91_)" fill="url(#SVGID_92_)" points="-0.722,58.692 66.233,0.455 126.272,69.481 59.316,127.719 	
		"/>
</g>
<g>
	<defs>
		<path id="SVGID_93_" d="M13.134,43.065c-0.018,0.025-0.036,0.049-0.055,0.072c0.301-0.028,0.595-0.078,0.88-0.151
			c0.011-0.01,0.023-0.021,0.034-0.03c0.415-0.369,0.931-0.567,1.488-0.556c0.205-0.108,0.408-0.219,0.608-0.344
			c-0.002-0.002-0.003-0.005-0.005-0.006c-0.305-0.184-0.695-0.233-1.1-0.357C14.353,42.06,13.619,42.391,13.134,43.065"/>
	</defs>
	<clipPath id="SVGID_94_">
		<use xlink:href="#SVGID_93_"  overflow="visible"/>
	</clipPath>
	
		<linearGradient id="SVGID_95_" gradientUnits="userSpaceOnUse" x1="0" y1="125.627" x2="1" y2="125.627" gradientTransform="matrix(69.2014 -60.1909 -60.1909 -69.2014 7550.6689 8758.1299)">
		<stop  offset="0" style="stop-color:#EEC65F"/>
		<stop  offset="0.23" style="stop-color:#A76F2A"/>
		<stop  offset="0.33" style="stop-color:#E2B755"/>
		<stop  offset="0.58" style="stop-color:#E2B755"/>
		<stop  offset="0.69" style="stop-color:#8F5D21"/>
		<stop  offset="1" style="stop-color:#E2B755"/>
	</linearGradient>
	<polygon clip-path="url(#SVGID_94_)" fill="url(#SVGID_95_)" points="12.364,42.315 14.792,40.203 16.804,42.515 14.375,44.627 	
		"/>
</g>
<g>
	<defs>
		<path id="SVGID_96_" d="M3.542,42.63c0.352-0.116,0.705-0.054,1.007,0.137c0.507,0.323,1,0.667,1.47,1.038
			c0.286,0.226,0.564,0.495,0.582,1.033c-0.473-0.414-0.849-0.749-1.235-1.071c-0.05-0.04-0.162-0.005-0.283-0.005
			c-0.056,0.535,0.408,0.709,0.649,1.009c0.241,0.3,0.549,0.551,0.718,0.968C5.175,45.47,3.382,43.767,3.542,42.63 M2.596,42.299
			c0.136,0.27,0.257,0.55,0.411,0.814c0.298,0.517,0.556,1.068,0.93,1.525c0.612,0.748,1.417,1.28,2.319,1.638
			c0.491,0.194,0.854,0.478,1.052,0.908c0.113-0.091,0.247-0.191,0.377-0.29c-0.048-0.129-0.088-0.265-0.143-0.39
			c-0.236-0.534-0.419-1.055-0.424-1.653c-0.003-0.56-0.288-1.033-0.724-1.375c-0.508-0.396-1.035-0.774-1.583-1.112
			c-0.341-0.21-0.768-0.312-1.184-0.312C3.249,42.052,2.881,42.136,2.596,42.299"/>
	</defs>
	<clipPath id="SVGID_97_">
		<use xlink:href="#SVGID_96_"  overflow="visible"/>
	</clipPath>
	
		<linearGradient id="SVGID_98_" gradientUnits="userSpaceOnUse" x1="0" y1="125.626" x2="1" y2="125.626" gradientTransform="matrix(69.2021 -60.1914 -60.1914 -69.2021 7547.6934 8754.7559)">
		<stop  offset="0" style="stop-color:#EEC65F"/>
		<stop  offset="0.23" style="stop-color:#A76F2A"/>
		<stop  offset="0.33" style="stop-color:#E2B755"/>
		<stop  offset="0.58" style="stop-color:#E2B755"/>
		<stop  offset="0.69" style="stop-color:#8F5D21"/>
		<stop  offset="1" style="stop-color:#E2B755"/>
	</linearGradient>
	<polygon clip-path="url(#SVGID_97_)" fill="url(#SVGID_98_)" points="0.055,44.262 5.493,39.532 10.226,44.974 4.788,49.704 	"/>
</g>
<g>
	<defs>
		<path id="SVGID_99_" d="M20.608,90.367c0.844-0.19,1.354,0.155,1.494,0.965c0.137,0.794-0.119,1.541-0.277,2.301
			c-0.126,0.604-0.266,1.203-0.407,1.847c-0.413-0.008-0.758-0.313-1.041-0.634c-0.382-0.426-0.706-0.91-1.016-1.393
			c-0.411-0.636-0.27-1.333-0.117-2.005c0.081-0.351,0.339-0.604,0.706-0.724c0.734,2.438,0.776,2.521,1.428,2.685
			C20.891,92.407,20.439,91.448,20.608,90.367 M24.968,89.775c-0.338-1.075-0.518-2.15,0.186-3.354
			c0.397,1.346,0.456,2.578,0.285,3.86C25.064,90.257,25.034,89.988,24.968,89.775 M14.488,87.729
			c-0.061-0.213-0.166-0.413-0.22-0.627c-0.069-0.27-0.058-0.563,0.194-0.729c0.384-0.25,0.797-0.452,1.264-0.711
			c0.314,0.772,0.343,1.471-0.119,2.079c-0.398,0.522-0.66,1.097-0.915,1.688c-0.102,0.234-0.289,0.435-0.453,0.638
			c-0.151,0.187-0.323,0.357-0.531,0.585c-0.678-0.519-1.033-1.209-1.012-2.079c0.009-0.374,0.107-0.746,0.147-1.12
			c0.103-0.963,0.41-1.578,1.813-1.762c-0.266,0.2-0.414,0.295-0.539,0.413c-0.332,0.322-0.454,0.688-0.266,1.146
			c0.229,0.559,0.459,0.992,0.833,1.339C14.6,88.211,14.557,87.966,14.488,87.729 M20.624,82.394
			c0.315,0.013,0.472,0.197,0.532,0.489c0.313,1.512,0.27,2.996-0.348,4.483C19.644,86.838,19.512,83.85,20.624,82.394 M5.904,78.3
			c0.349-0.425,0.847-0.521,1.34-0.603c1.414-0.234,2.786-0.184,4.046,0.703c-0.107,0.181-0.276,0.104-0.43,0.069
			c-0.868-0.189-1.742-0.326-2.633-0.173c-0.212,0.036-0.42,0.092-0.699,0.155c0.209,0.379,0.437,0.35,0.689,0.329
			c0.506-0.041,1.016-0.064,1.524-0.063c0.204,0,0.409,0.085,0.651,0.14c-0.442,0.477-1.016,0.67-1.623,0.67
			C7.748,79.529,6.635,78.979,5.904,78.3 M15.234,80.675c0.085-1.539,0.56-2.96,1.375-4.266c0.317-0.511,0.799-0.812,1.347-1.021
			c0.948,1.237,0.043,4.9-1.719,6.358c-0.05-0.271,0.025-0.482,0.113-0.695c0.286-0.7,0.565-1.399,0.852-2.097
			c0.116-0.285,0.246-0.564,0.083-1.003c-0.444,0.429-0.459,0.945-0.669,1.365c-0.218,0.437-0.384,0.898-0.574,1.349
			c-0.186,0.449-0.372,0.895-0.618,1.34C15.234,81.575,15.21,81.118,15.234,80.675 M11.374,72.91
			c0.154-0.316,0.358-0.612,0.74-0.708c0.344,0.798-0.302,2.886-1.183,3.678C10.99,74.825,10.923,73.831,11.374,72.91 M4.279,68.333
			c1.145,0.476,1.93,1.264,2.366,2.395c0.237,0.618,0.159,0.829-0.433,1.155c-0.074,0.042-0.193,0.104-0.193,0.159
			c-0.007,0.502-0.411,0.462-0.711,0.498c-0.798,0.096-1.572,0.084-2.297-0.4c-0.294-0.194-0.391-0.407-0.387-0.695
			c0.007-0.325,0.119-0.609,0.481-0.717c0.182-0.054,0.357-0.131,0.681-0.25c-0.244-0.176-0.373-0.268-0.499-0.359
			c-0.248-0.181-0.521-0.333-0.735-0.549c-0.213-0.216-0.29-0.496-0.079-0.783c0.207-0.278,0.49-0.287,0.777-0.178
			c0.223,0.086,0.429,0.215,0.68,0.343C4.053,68.734,4.165,68.534,4.279,68.333 M3.209,63.853c0.922-0.008,1.71,0.305,2.454,0.674
			c0.753,0.372,0.842,1.253,1.308,1.871c-0.111,0.04-0.239,0.061-0.379,0.061C5.477,66.458,3.579,65.215,3.209,63.853 M9.131,65.465
			c0.414-0.368,0.815-0.756,1.178-1.176c0.427-0.493,0.964-0.6,1.561-0.551c0.376,0.031,0.747,0.101,1.175,0.161
			c-0.057,0.148-0.09,0.266-0.145,0.37c-0.229,0.433-0.457,0.863-0.697,1.286c-0.536,0.945-1.367,1.395-2.407,1.477
			c-0.035-0.051-0.067-0.102-0.101-0.154c0.404-0.4,0.803-0.804,1.213-1.198c0.212-0.205,0.449-0.315,0.695,0.056
			c0.086-0.609-0.123-0.84-0.511-0.649c-0.332,0.161-0.619,0.419-0.912,0.653c-0.397,0.319-0.77,0.667-1.175,0.976
			c-0.114,0.088-0.3,0.081-0.532,0.136C8.596,66.256,8.739,65.814,9.131,65.465 M6.936,61.323c0.227-0.91,0.589-1.76,1.175-2.505
			c0.362-0.463,0.756-0.661,1.57-0.784c0.226,0.301,0.105,0.553-0.026,0.781c-0.231,0.401-0.461,0.81-0.748,1.168
			c-0.47,0.586-0.982,1.137-1.49,1.693c-0.112,0.124-0.279,0.197-0.536,0.373C6.903,61.73,6.887,61.519,6.936,61.323 M2.864,56.022
			c-0.746-0.054-1.49-0.125-2.261-0.194c0.023-0.701,0.254-1.265,0.544-1.773c0.454-0.792,2.059-1.079,2.817-0.553
			c0.149,0.103,0.244,0.284,0.432,0.509c-0.294,0.04-0.571,0.003-0.836-0.034c-0.371-0.052-0.72-0.104-1.06,0.055
			c-0.028,0.321,0.19,0.335,0.385,0.358c0.33,0.038,0.664,0.05,0.99,0.1c0.229,0.035,0.45,0.12,0.703,0.189
			c-0.321,0.617-0.823,0.94-1.333,1.248c-0.097,0.059-0.226,0.096-0.342,0.096C2.89,56.023,2.877,56.023,2.864,56.022 M7.166,51.981
			c-0.217,1.066-0.399,2.139-0.597,3.209c-0.034,0.184-0.076,0.364-0.113,0.545c-0.044,0.011-0.088,0.022-0.133,0.033
			c-0.237-0.626-1.025-0.839-1.101-1.593c-0.006-0.049-0.09-0.089-0.136-0.135c-0.149-0.152-0.298-0.306-0.443-0.462
			c-0.119-0.129-0.215-0.29-0.355-0.391c-1.022-0.724-2.823-0.468-3.475,0.571C0.368,54.467,0.161,55.3,0,56.159
			c0.188,0.07,0.328,0.153,0.473,0.167c0.643,0.064,1.287,0.107,1.93,0.162c0.662,0.056,1.222-0.173,1.701-0.62
			c0.305-0.284,0.609-0.569,0.95-0.887c0.798,0.67,1.323,1.385,1.182,2.472c-0.134,1.036-0.195,2.081-0.278,3.125
			c-0.016,0.195,0.01,0.401,0.049,0.594c0.183,0.936,0.382,1.87,0.567,2.807c0.05,0.264,0.066,0.535,0.099,0.804
			c-0.461-0.551-1.051-0.748-1.645-0.938c-0.34-0.107-0.669-0.263-1.016-0.324c-0.411-0.071-0.837-0.085-1.256-0.081
			c-0.142,0.002-0.283,0.141-0.466,0.24c0.394,0.508,0.727,0.948,1.071,1.38c0.654,0.83,1.509,1.375,2.505,1.696
			c0.338,0.109,0.691,0.168,1.042,0.229c0.271,0.046,0.457,0.176,0.521,0.442c0.093,0.389,0.195,0.775,0.253,1.17
			c0.125,0.852-0.059,1.792,0.751,2.434c0.044,0.036,0.049,0.123,0.068,0.186c0.181,0.612,0.36,1.225,0.567,1.932
			c-0.668-0.475-1.257-0.892-1.86-1.319c-0.006-0.022-0.029-0.066-0.028-0.107c0.031-1.772-1.047-2.853-2.381-3.76
			c-0.316-0.215-0.683-0.235-0.981,0.059c-0.208,0.204-0.416,0.189-0.672,0.134C2.72,68.061,2.345,68.19,2.094,68.56
			c-0.272,0.401-0.19,0.812,0.054,1.19c0.142,0.22,0.33,0.41,0.514,0.634c-0.792,0.683-0.488,1.445-0.171,2.202
			c0.134,0.318,0.287,0.643,0.775,0.586c-0.037-0.16-0.064-0.28-0.092-0.406c0.911,0.376,1.825,0.269,2.737,0.075
			c0.168-0.035,0.327-0.14,0.474-0.238c0.503-0.337,0.703-0.36,1.186-0.024c0.401,0.28,0.792,0.581,1.154,0.909
			c0.508,0.462,0.91,0.977,1.148,1.666c0.257,0.748,0.5,1.538,1.086,2.137c0.058,0.057,0.041,0.188,0.053,0.254
			c-0.624-0.123-1.204-0.304-1.792-0.334c-0.705-0.037-1.415,0.061-2.125,0.089c-0.601,0.024-1.12,0.261-1.612,0.58
			c-0.468,0.306-0.49,0.546-0.018,0.821c0.594,0.348,1.205,0.669,1.829,0.958c1.053,0.483,2.103,0.539,3.117-0.127
			c0.111-0.073,0.232-0.139,0.355-0.186c0.367-0.137,0.737-0.264,1.137-0.405c0.348,0.587,0.648,1.104,0.96,1.613
			c0.16,0.265,0.322,0.529,0.517,0.769c0.353,0.427,0.726,0.842,1.1,1.252c0.131,0.143,0.273,0.327,0.443,0.377
			c1.095,0.321,1.62,1.234,2.343,2.129c-0.728-0.057-1.33-0.103-2.09-0.162c-0.33,0.114-0.824,0.314-1.336,0.452
			c-0.554,0.148-0.993,0.458-1.229,0.952c-0.523,1.104-0.547,2.269-0.245,3.443c0.009,0.042,0.039,0.08,0.065,0.116
			c0.305,0.411,0.579,0.854,0.929,1.22c0.289,0.305,0.585,0.655,1.114,0.716c0-0.169,0.038-0.313-0.007-0.42
			c-0.179-0.425-0.108-0.758,0.237-1.074c0.172-0.158,0.293-0.401,0.368-0.626c0.199-0.6,0.482-1.147,0.88-1.639
			c0.335-0.416,0.482-0.896,0.448-1.432c-0.021-0.347-0.042-0.696-0.069-1.156c0.593,0.115,1.125,0.219,1.656,0.322
			c0.829,0.842,2.025,1.326,2.449,2.594c0.474-0.26,0.777-0.019,1.093,0.255c0.354,0.305,0.739,0.57,1.106,0.861
			c0.109,0.088,0.197,0.202,0.323,0.334c-0.468,0.166-0.84,0.047-1.224-0.067c-0.67-0.202-1.347-0.361-1.853,0.352
			c-0.05,0.068-0.142,0.105-0.219,0.152c-0.966,0.581-1.14,1.511-0.98,2.502c0.187,1.148,0.847,2.048,1.8,2.699
			c0.509,0.349,1.077,0.617,1.622,0.913c0.184,0.102,0.38,0.159,0.509-0.132c-0.035-0.062-0.063-0.151-0.121-0.209
			c-0.484-0.473-0.554-1.043-0.399-1.665c0.06-0.239,0.122-0.474,0.192-0.71c0.297-1.012,0.533-2.027,0.107-3.068
			c-0.01-0.026,0.031-0.073,0.045-0.104c0.367-0.069,0.73-0.138,1.071-0.203c0.771,0.445,1.549,0.895,2.338,1.352
			c0.046-0.164,0.099-0.34,0.16-0.527c-0.046-0.033-0.098-0.068-0.144-0.103c0.153-3.568-0.001-4.721-0.747-5.393
			c-1.157,1.422-1.013,2.983-0.481,4.628c-0.353,0.022-0.558-0.178-0.745-0.319c-0.761-0.576-1.49-1.196-2.245-1.781
			c-0.259-0.202-0.373-0.411-0.28-0.74c0.096-0.342,0.153-0.695,0.23-1.043c0.268-1.241,0.218-2.477-0.064-3.707
			c-0.064-0.28-0.127-0.561-0.189-0.836c-0.655-0.183-1.028-0.047-1.309,0.542c-0.522,1.088-0.754,2.231-0.554,3.44
			c0.025,0.153,0.058,0.307,0.081,0.46c0.005,0.04-0.015,0.084-0.035,0.192c-1.439-0.954-2.352-2.379-3.561-3.571
			c0.206-0.261,0.361-0.51,0.566-0.703c1.486-1.419,2.06-3.229,2.261-5.203c0.008-0.088-0.003-0.178-0.006-0.268
			c-0.027-0.835-0.519-1.633-0.069-2.591c-0.507,0.157-0.907,0.162-1.037,0.646c-0.028,0.11-0.146,0.223-0.252,0.279
			c-1.194,0.642-1.704,1.767-2.112,2.962c-0.382,1.124-0.609,2.277-0.576,3.472c0.001,0.105-0.02,0.212-0.038,0.396
			c-0.156-0.098-0.273-0.146-0.358-0.228c-0.877-0.848-1.386-1.939-1.962-2.985c-0.053-0.098-0.086-0.206-0.145-0.298
			c-0.353-0.559-0.711-1.112-1.065-1.663c0.968-1.62,1.723-3.229,1.485-5.175c-0.707,0.056-1.21,0.326-1.509,0.899
			c-0.301,0.574-0.532,1.178-0.569,1.837c-0.013,0.232-0.065,0.46-0.099,0.691c-0.05,0.007-0.097,0.013-0.147,0.019
			c-0.253-0.631-0.545-1.251-0.75-1.898c-0.453-1.441-0.88-2.894-1.278-4.351c-0.108-0.396-0.076-0.829-0.107-1.216
			c0.376-0.273,0.722-0.178,1.028-0.104c1.041,0.25,1.878-0.17,2.662-0.758c0.205-0.153,0.36-0.391,0.499-0.611
			c0.246-0.399,0.445-0.823,0.695-1.218c0.152-0.238,0.349-0.455,0.55-0.657c0.294-0.297,0.293-0.643-0.075-0.704
			c-0.978-0.16-1.977-0.392-2.948,0.044c-0.179,0.08-0.332,0.224-0.479,0.355c-0.89,0.777-1.771,1.562-2.222,2.787
			c-0.157-0.176-0.286-0.269-0.342-0.394c-0.233-0.511-0.698-3.127-0.667-3.652c0.976-0.713,1.776-1.61,2.501-2.559
			c0.539-0.704,0.893-1.529,0.919-2.477c-0.547-0.264-1.009,0.009-1.468,0.187c-0.801,0.311-1.21,1.015-1.6,1.712
			c-0.195,0.349-0.327,0.73-0.487,1.096c-0.05,0.109-0.108,0.216-0.282,0.308c-0.014-0.255-0.063-0.514-0.04-0.765
			c0.087-0.973,0.173-1.949,0.303-2.918c0.142-1.057,0.326-2.111,0.506-3.163c0.101-0.595,0.294-1.153,0.707-1.622
			c0.233-0.262,0.448-0.54,0.666-0.814c-0.208,0.041-0.407,0.067-0.598,0.072c-0.009,0.011-0.02,0.02-0.029,0.033
			c-0.039,0.048-0.103,0.077-0.16,0.109c-0.006,0.003-0.015,0.001-0.021-0.003c-0.006-0.003-0.007-0.005,0.001-0.003
			c0.011-0.046,0.023-0.093,0.036-0.14c-0.212-0.008-0.398-0.041-0.567-0.09C7.24,51.703,7.195,51.84,7.166,51.981"/>
	</defs>
	<clipPath id="SVGID_100_">
		<use xlink:href="#SVGID_99_"  overflow="visible"/>
	</clipPath>
	
		<linearGradient id="SVGID_101_" gradientUnits="userSpaceOnUse" x1="0" y1="125.625" x2="1" y2="125.625" gradientTransform="matrix(69.2027 -60.192 -60.192 -69.2027 7565.6431 8775.3672)">
		<stop  offset="0" style="stop-color:#EEC65F"/>
		<stop  offset="0.23" style="stop-color:#A76F2A"/>
		<stop  offset="0.33" style="stop-color:#E2B755"/>
		<stop  offset="0.58" style="stop-color:#E2B755"/>
		<stop  offset="0.69" style="stop-color:#8F5D21"/>
		<stop  offset="1" style="stop-color:#E2B755"/>
	</linearGradient>
	<polygon clip-path="url(#SVGID_100_)" fill="url(#SVGID_101_)" points="-22.274,70.938 14.811,38.683 48.289,77.173 
		11.205,109.429 	"/>
</g>
<g>
	<defs>
		<path id="SVGID_102_" d="M13.575,39.53c1.264-1.524,2.831-1.792,4.58-1.425c-0.295,0.495-1.784,1.134-2.898,1.197
			c0.602-0.304,1.271-0.43,1.91-0.765c-0.242-0.287-0.461-0.258-0.672-0.195c-0.637,0.192-1.271,0.393-1.901,0.602
			c-0.249,0.082-0.487,0.156-0.541,0.502c-0.017,0.124-0.071,0.161-0.145,0.161C13.819,39.607,13.699,39.552,13.575,39.53
			 M8.878,35.712c1.434,0.182,2.937,2.781,2.421,4.268c-0.136-0.534-0.254-1.072-0.417-1.597c-0.102-0.338-0.247-0.665-0.415-0.976
			c-0.124-0.229-0.331-0.346-0.591-0.134c0.205,0.455,0.442,0.874,0.586,1.324c0.144,0.457,0.191,0.944,0.208,1.439
			C9.928,38.663,9.194,37.293,8.878,35.712 M13.34,31.295c-0.304-1.304-0.631-2.604-0.302-3.945
			c0.148-0.602,0.371-1.187,0.862-1.713c1.677,2.358,2.597,4.898,2.332,7.81c-0.123-0.468-0.22-0.945-0.376-1.404
			c-0.407-1.197-0.835-2.389-1.271-3.577c-0.041-0.112-0.225-0.26-0.319-0.246c-0.233,0.033-0.221,0.254-0.172,0.427
			c0.085,0.3,0.17,0.603,0.302,0.882c0.549,1.175,0.921,2.407,1.215,3.665c0.045,0.185,0.032,0.384,0.045,0.575
			c-0.049,0.022-0.099,0.043-0.149,0.063C14.554,33.191,13.63,32.542,13.34,31.295 M24.113,25.248
			c-0.088,0.474-0.087,0.968-0.081,1.454c0.004,0.284,0.099,0.567,0.149,0.853c0.089,0.507,0.07,0.497-0.397,0.774
			c-0.61,0.361-1.235,0.716-1.794,1.148c-1.674,1.29-3.247,2.697-4.761,4.17c-0.101,0.096-0.231,0.163-0.44,0.309
			c0-0.792,0.043-1.479-0.009-2.159c-0.096-1.247-0.3-2.484-0.854-3.618c-0.44-0.898-0.938-1.77-1.464-2.62
			c-0.196-0.319-0.398-0.597-0.285-0.986c-0.482-0.009-0.649,0.115-0.771,0.468c-0.115,0.333-0.229,0.674-0.398,0.98
			c-0.54,0.989-0.799,2.035-0.621,3.15c0.139,0.877,0.362,1.741,0.532,2.615c0.131,0.674,0.544,1.153,1.051,1.568
			c0.481,0.396,0.972,0.778,1.463,1.162c0.121,0.094,0.252,0.17,0.41,0.274c-1.373,1.76-2.79,3.338-3.79,5.229
			c-0.011-1.246-0.433-2.347-1.067-3.345c-0.722-1.138-2.101-1.908-2.83-1.733c0.095,0.434,0.176,0.814,0.262,1.191
			c0.05,0.217,0.087,0.439,0.169,0.643c0.271,0.681,0.543,1.363,0.844,2.029c0.437,0.97,0.825,1.978,1.747,2.631
			c0.027,0.018,0.022,0.08,0.037,0.147c-0.045,0.079-0.099,0.176-0.158,0.267c-0.249,0.396-0.46,0.81-0.674,1.222
			c0.176,0.01,0.366,0.023,0.575,0.039l0.009,0.001c0.5-0.921,1.052-1.815,1.589-2.717c0.149-0.251,0.368-0.317,0.621-0.302
			c1.773,0.109,3.372-0.467,4.915-1.253c0.314-0.161,0.603-0.381,0.876-0.606c0.266-0.22,0.202-0.475-0.126-0.601
			c-0.103-0.039-0.216-0.061-0.326-0.064c-0.89-0.021-1.782-0.098-2.666-0.03c-0.464,0.036-0.914,0.31-1.355,0.512
			c-0.238,0.108-0.441,0.291-0.753,0.37c0.159-0.243,0.307-0.495,0.48-0.729c1.252-1.685,2.743-3.148,4.305-4.541
			c0.855-0.764,0.982-0.732,1.835,0.003c0.534,0.463,1.136,0.847,1.713,1.263c0.109,0.076,0.241,0.122,0.346,0.201
			c0.465,0.355,0.969,0.559,1.488,0.707c0.033-0.034,0.064-0.066,0.097-0.099c-0.173-0.172-0.326-0.365-0.449-0.585
			c-0.256-0.122-0.506-0.263-0.741-0.448c-0.276-0.214-0.634-0.322-0.922-0.524c-0.486-0.341-0.946-0.719-1.366-1.184
			c0.403,0,0.817-0.058,1.209,0.011c0.523,0.094,1.041,0.213,1.563,0.318c0.047-0.176,0.115-0.347,0.194-0.515
			c-0.723-0.127-1.447-0.249-2.168-0.377c-0.124-0.022-0.247-0.044-0.37-0.066c0.73-0.391,1.43-0.612,2.251-0.527
			c0.268,0.028,0.531,0.073,0.796,0.109c0.098-0.143,0.198-0.284,0.302-0.426c-0.504-0.083-1.008-0.181-1.513-0.251
			c-0.315-0.044-0.656,0.055-0.977,0.119c-0.256,0.05-0.502,0.148-0.809,0.135c0.286-0.254,0.551-0.541,0.862-0.763
			c0.705-0.501,1.395-1.051,2.165-1.429c0.591-0.291,1.129-0.604,1.651-1.011c0.15-0.117,0.328-0.199,0.496-0.292
			c0.011-0.05,0.036-0.097,0.045-0.148l0.29-1.523c0.008-0.047,0.018-0.095,0.027-0.143c-0.147,0.006-0.283-0.028-0.422-0.046
			c-0.286,0.859-0.732,1.604-1.293,1.962c-0.26-0.607-0.256-1.601-0.094-2.607c-0.176-0.166-0.323-0.356-0.445-0.572
			C24.223,24.709,24.161,24.976,24.113,25.248"/>
	</defs>
	<clipPath id="SVGID_103_">
		<use xlink:href="#SVGID_102_"  overflow="visible"/>
	</clipPath>
	
		<linearGradient id="SVGID_104_" gradientUnits="userSpaceOnUse" x1="0" y1="125.6064" x2="1" y2="125.6064" gradientTransform="matrix(69.2028 -60.1921 -60.1921 -69.2028 7546.4229 8753.3037)">
		<stop  offset="0" style="stop-color:#EEC65F"/>
		<stop  offset="0.23" style="stop-color:#A76F2A"/>
		<stop  offset="0.33" style="stop-color:#E2B755"/>
		<stop  offset="0.58" style="stop-color:#E2B755"/>
		<stop  offset="0.69" style="stop-color:#8F5D21"/>
		<stop  offset="1" style="stop-color:#E2B755"/>
	</linearGradient>
	<polygon clip-path="url(#SVGID_103_)" fill="url(#SVGID_104_)" points="-1.088,32.483 18.623,15.338 35.787,35.07 16.075,52.215 	
		"/>
</g>
<g>
	<defs>
		<path id="SVGID_105_" d="M98.453,81.618c0,2.595,1.666,4.272,4.309,4.272c1.319,0,2.546-0.583,3.142-1.393l-0.477-0.547
			c-0.558,0.631-1.392,1.143-2.629,1.143c-2.083,0-3.476-1.381-3.476-3.476c0-2.023,1.225-3.475,3.295-3.475
			c1.239,0,1.953,0.404,2.644,1.059l0.512-0.535c-0.535-0.69-1.643-1.322-3.13-1.322C100.059,77.345,98.453,79.226,98.453,81.618"/>
	</defs>
	<clipPath id="SVGID_106_">
		<use xlink:href="#SVGID_105_"  overflow="visible"/>
	</clipPath>
	
		<linearGradient id="SVGID_107_" gradientUnits="userSpaceOnUse" x1="0" y1="125.626" x2="1" y2="125.626" gradientTransform="matrix(298.3524 0 0 -298.3524 99.2725 37562.3359)">
		<stop  offset="0" style="stop-color:#EEC65F"/>
		<stop  offset="0.23" style="stop-color:#A76F2A"/>
		<stop  offset="0.33" style="stop-color:#E2B755"/>
		<stop  offset="0.58" style="stop-color:#E2B755"/>
		<stop  offset="0.69" style="stop-color:#8F5D21"/>
		<stop  offset="1" style="stop-color:#E2B755"/>
	</linearGradient>
	<rect x="98.453" y="77.345" clip-path="url(#SVGID_106_)" fill="url(#SVGID_107_)" width="7.451" height="8.546"/>
</g>
<g>
	<defs>
		<polygon id="SVGID_108_" points="109.765,77.453 109.765,78.238 112.739,78.238 112.739,85.784 113.584,85.784 113.584,78.238 
			116.56,78.238 116.56,77.453 		"/>
	</defs>
	<clipPath id="SVGID_109_">
		<use xlink:href="#SVGID_108_"  overflow="visible"/>
	</clipPath>
	
		<linearGradient id="SVGID_110_" gradientUnits="userSpaceOnUse" x1="0" y1="125.626" x2="1" y2="125.626" gradientTransform="matrix(298.348 0 0 -298.348 99.3749 37561.8086)">
		<stop  offset="0" style="stop-color:#EEC65F"/>
		<stop  offset="0.23" style="stop-color:#A76F2A"/>
		<stop  offset="0.33" style="stop-color:#E2B755"/>
		<stop  offset="0.58" style="stop-color:#E2B755"/>
		<stop  offset="0.69" style="stop-color:#8F5D21"/>
		<stop  offset="1" style="stop-color:#E2B755"/>
	</linearGradient>
	<rect x="109.765" y="77.453" clip-path="url(#SVGID_109_)" fill="url(#SVGID_110_)" width="6.795" height="8.331"/>
</g>
<g>
	<defs>
		<path id="SVGID_111_" d="M127.323,77.453l-2.642,5.474l-3.534-5.474h-0.989l4.083,6.308c-0.369,0.749-0.703,1.214-1.108,1.214
			c-0.096,0-0.225-0.035-0.297-0.07l-0.357,0.689c0.166,0.13,0.416,0.19,0.608,0.19c0.832,0,1.368-0.678,1.938-1.881l3.155-6.45
			H127.323z"/>
	</defs>
	<clipPath id="SVGID_112_">
		<use xlink:href="#SVGID_111_"  overflow="visible"/>
	</clipPath>
	
		<linearGradient id="SVGID_113_" gradientUnits="userSpaceOnUse" x1="0" y1="125.626" x2="1" y2="125.626" gradientTransform="matrix(298.3497 0 0 -298.3497 99.3958 37562.1641)">
		<stop  offset="0" style="stop-color:#EEC65F"/>
		<stop  offset="0.23" style="stop-color:#A76F2A"/>
		<stop  offset="0.33" style="stop-color:#E2B755"/>
		<stop  offset="0.58" style="stop-color:#E2B755"/>
		<stop  offset="0.69" style="stop-color:#8F5D21"/>
		<stop  offset="1" style="stop-color:#E2B755"/>
	</linearGradient>
	<rect x="120.158" y="77.453" clip-path="url(#SVGID_112_)" fill="url(#SVGID_113_)" width="8.022" height="8.331"/>
</g>
<g>
	<defs>
		<path id="SVGID_114_" d="M134.648,79.155v-0.929h3.795v6.783h-4.915C134.289,83.832,134.648,81.166,134.648,79.155 M133.85,77.453
			V79c0,3.57-0.702,5.224-1.226,6.01h-0.88v2.334h0.797v-1.56h7.034v1.56h0.797V85.01h-1.084v-7.557H133.85z"/>
	</defs>
	<clipPath id="SVGID_115_">
		<use xlink:href="#SVGID_114_"  overflow="visible"/>
	</clipPath>
	
		<linearGradient id="SVGID_116_" gradientUnits="userSpaceOnUse" x1="0" y1="125.626" x2="1" y2="125.626" gradientTransform="matrix(298.351 0 0 -298.351 99.2049 37563)">
		<stop  offset="0" style="stop-color:#EEC65F"/>
		<stop  offset="0.23" style="stop-color:#A76F2A"/>
		<stop  offset="0.33" style="stop-color:#E2B755"/>
		<stop  offset="0.58" style="stop-color:#E2B755"/>
		<stop  offset="0.69" style="stop-color:#8F5D21"/>
		<stop  offset="1" style="stop-color:#E2B755"/>
	</linearGradient>
	<rect x="131.744" y="77.453" clip-path="url(#SVGID_115_)" fill="url(#SVGID_116_)" width="8.628" height="9.891"/>
</g>
<g>
	<defs>
		<polygon id="SVGID_117_" points="151.182,77.453 145.813,84.356 145.813,77.453 144.969,77.453 144.969,85.784 145.695,85.784 
			151.076,78.881 151.076,85.784 151.92,85.784 151.92,77.453 		"/>
	</defs>
	<clipPath id="SVGID_118_">
		<use xlink:href="#SVGID_117_"  overflow="visible"/>
	</clipPath>
	
		<linearGradient id="SVGID_119_" gradientUnits="userSpaceOnUse" x1="0" y1="125.626" x2="1" y2="125.626" gradientTransform="matrix(298.3495 0 0 -298.3495 99.417 37562.1563)">
		<stop  offset="0" style="stop-color:#EEC65F"/>
		<stop  offset="0.23" style="stop-color:#A76F2A"/>
		<stop  offset="0.33" style="stop-color:#E2B755"/>
		<stop  offset="0.58" style="stop-color:#E2B755"/>
		<stop  offset="0.69" style="stop-color:#8F5D21"/>
		<stop  offset="1" style="stop-color:#E2B755"/>
	</linearGradient>
	<rect x="144.969" y="77.453" clip-path="url(#SVGID_118_)" fill="url(#SVGID_119_)" width="6.951" height="8.331"/>
</g>
<g>
	<defs>
		<path id="SVGID_120_" d="M157.934,80.048c0-1.012,0.618-1.821,2.227-1.821h2.522v3.582h-2.763
			C158.636,81.69,157.934,80.976,157.934,80.048 M160.266,77.453c-2.213,0-3.225,1.154-3.225,2.559c0,1.31,0.857,2.226,2.236,2.464
			l-2.783,3.309h1.035l2.665-3.191h2.488v3.191h0.844v-8.331H160.266z"/>
	</defs>
	<clipPath id="SVGID_121_">
		<use xlink:href="#SVGID_120_"  overflow="visible"/>
	</clipPath>
	
		<linearGradient id="SVGID_122_" gradientUnits="userSpaceOnUse" x1="0" y1="125.627" x2="1" y2="125.627" gradientTransform="matrix(298.3532 0 0 -298.3532 99.408 37562.6367)">
		<stop  offset="0" style="stop-color:#EEC65F"/>
		<stop  offset="0.23" style="stop-color:#A76F2A"/>
		<stop  offset="0.33" style="stop-color:#E2B755"/>
		<stop  offset="0.58" style="stop-color:#E2B755"/>
		<stop  offset="0.69" style="stop-color:#8F5D21"/>
		<stop  offset="1" style="stop-color:#E2B755"/>
	</linearGradient>
	<rect x="156.494" y="77.453" clip-path="url(#SVGID_121_)" fill="url(#SVGID_122_)" width="7.032" height="8.331"/>
</g>
<g>
	<defs>
		<path id="SVGID_123_" d="M178.048,79.155v-0.929h3.795v6.783h-4.915C177.689,83.832,178.048,81.166,178.048,79.155
			 M177.251,77.453V79c0,3.57-0.703,5.224-1.227,6.01h-0.882v2.334h0.799v-1.56h7.032v1.56h0.799V85.01h-1.086v-7.557H177.251z"/>
	</defs>
	<clipPath id="SVGID_124_">
		<use xlink:href="#SVGID_123_"  overflow="visible"/>
	</clipPath>
	
		<linearGradient id="SVGID_125_" gradientUnits="userSpaceOnUse" x1="0" y1="125.626" x2="1" y2="125.626" gradientTransform="matrix(298.351 0 0 -298.351 -16.7951 37563)">
		<stop  offset="0" style="stop-color:#EEC65F"/>
		<stop  offset="0.23" style="stop-color:#A76F2A"/>
		<stop  offset="0.33" style="stop-color:#E2B755"/>
		<stop  offset="0.58" style="stop-color:#E2B755"/>
		<stop  offset="0.69" style="stop-color:#8F5D21"/>
		<stop  offset="1" style="stop-color:#E2B755"/>
	</linearGradient>
	<rect x="175.143" y="77.453" clip-path="url(#SVGID_124_)" fill="url(#SVGID_125_)" width="8.63" height="9.891"/>
</g>
<g>
	<defs>
		<polygon id="SVGID_126_" points="188.369,77.453 188.369,85.784 194.426,85.784 194.426,84.998 189.213,84.998 189.213,81.939 
			193.975,81.939 193.975,81.154 189.213,81.154 189.213,78.238 194.308,78.238 194.308,77.453 		"/>
	</defs>
	<clipPath id="SVGID_127_">
		<use xlink:href="#SVGID_126_"  overflow="visible"/>
	</clipPath>
	
		<linearGradient id="SVGID_128_" gradientUnits="userSpaceOnUse" x1="0" y1="125.626" x2="1" y2="125.626" gradientTransform="matrix(298.3542 0 0 -298.3542 -16.7278 37562.6992)">
		<stop  offset="0" style="stop-color:#EEC65F"/>
		<stop  offset="0.23" style="stop-color:#A76F2A"/>
		<stop  offset="0.33" style="stop-color:#E2B755"/>
		<stop  offset="0.58" style="stop-color:#E2B755"/>
		<stop  offset="0.69" style="stop-color:#8F5D21"/>
		<stop  offset="1" style="stop-color:#E2B755"/>
	</linearGradient>
	<rect x="188.369" y="77.453" clip-path="url(#SVGID_127_)" fill="url(#SVGID_128_)" width="6.057" height="8.331"/>
</g>
<g>
	<defs>
		<polygon id="SVGID_129_" points="199.525,77.453 199.525,85.784 200.371,85.784 200.371,78.238 205.655,78.238 205.655,85.784 
			206.501,85.784 206.501,77.453 		"/>
	</defs>
	<clipPath id="SVGID_130_">
		<use xlink:href="#SVGID_129_"  overflow="visible"/>
	</clipPath>
	
		<linearGradient id="SVGID_131_" gradientUnits="userSpaceOnUse" x1="0" y1="125.626" x2="1" y2="125.626" gradientTransform="matrix(298.3517 0 0 -298.3517 -16.8884 37562.293)">
		<stop  offset="0" style="stop-color:#EEC65F"/>
		<stop  offset="0.23" style="stop-color:#A76F2A"/>
		<stop  offset="0.33" style="stop-color:#E2B755"/>
		<stop  offset="0.58" style="stop-color:#E2B755"/>
		<stop  offset="0.69" style="stop-color:#8F5D21"/>
		<stop  offset="1" style="stop-color:#E2B755"/>
	</linearGradient>
	<rect x="199.525" y="77.453" clip-path="url(#SVGID_130_)" fill="url(#SVGID_131_)" width="6.976" height="8.331"/>
</g>
<g>
	<defs>
		<polygon id="SVGID_132_" points="218.119,77.453 212.751,84.356 212.751,77.453 211.908,77.453 211.908,85.784 212.633,85.784 
			218.013,78.881 218.013,85.784 218.857,85.784 218.857,77.453 		"/>
	</defs>
	<clipPath id="SVGID_133_">
		<use xlink:href="#SVGID_132_"  overflow="visible"/>
	</clipPath>
	
		<linearGradient id="SVGID_134_" gradientUnits="userSpaceOnUse" x1="0" y1="125.626" x2="1" y2="125.626" gradientTransform="matrix(298.3569 0 0 -298.3569 -16.8638 37562.875)">
		<stop  offset="0" style="stop-color:#EEC65F"/>
		<stop  offset="0.23" style="stop-color:#A76F2A"/>
		<stop  offset="0.33" style="stop-color:#E2B755"/>
		<stop  offset="0.58" style="stop-color:#E2B755"/>
		<stop  offset="0.69" style="stop-color:#8F5D21"/>
		<stop  offset="1" style="stop-color:#E2B755"/>
	</linearGradient>
	<rect x="211.908" y="77.453" clip-path="url(#SVGID_133_)" fill="url(#SVGID_134_)" width="6.949" height="8.331"/>
</g>
<g>
	<defs>
		<path id="SVGID_135_" d="M225.18,77.453v1.713c0,5.344-1.035,5.809-1.844,5.809v0.81c0.096,0.036,0.261,0.036,0.429,0.036
			c1.071,0.012,2.263-1.489,2.263-6.129v-1.465h3.914v7.558h0.844v-8.331H225.18z"/>
	</defs>
	<clipPath id="SVGID_136_">
		<use xlink:href="#SVGID_135_"  overflow="visible"/>
	</clipPath>
	
		<linearGradient id="SVGID_137_" gradientUnits="userSpaceOnUse" x1="0" y1="125.626" x2="1" y2="125.626" gradientTransform="matrix(298.3548 0 0 -298.3548 -16.8126 37562.7383)">
		<stop  offset="0" style="stop-color:#EEC65F"/>
		<stop  offset="0.23" style="stop-color:#A76F2A"/>
		<stop  offset="0.33" style="stop-color:#E2B755"/>
		<stop  offset="0.58" style="stop-color:#E2B755"/>
		<stop  offset="0.69" style="stop-color:#8F5D21"/>
		<stop  offset="1" style="stop-color:#E2B755"/>
	</linearGradient>
	<rect x="223.336" y="77.453" clip-path="url(#SVGID_136_)" fill="url(#SVGID_137_)" width="7.449" height="8.379"/>
</g>
<g>
	<defs>
		<path id="SVGID_138_" d="M236.812,80.048c0-1.012,0.618-1.821,2.226-1.821h2.523v3.582h-2.763
			C237.515,81.69,236.812,80.976,236.812,80.048 M239.143,77.453c-2.212,0-3.223,1.154-3.223,2.559c0,1.31,0.857,2.226,2.235,2.464
			l-2.783,3.309h1.036l2.664-3.191h2.488v3.191h0.844v-8.331H239.143z"/>
	</defs>
	<clipPath id="SVGID_139_">
		<use xlink:href="#SVGID_138_"  overflow="visible"/>
	</clipPath>
	
		<linearGradient id="SVGID_140_" gradientUnits="userSpaceOnUse" x1="0" y1="125.626" x2="1" y2="125.626" gradientTransform="matrix(298.3465 0 0 -298.3465 -16.9088 37561.7109)">
		<stop  offset="0" style="stop-color:#EEC65F"/>
		<stop  offset="0.23" style="stop-color:#A76F2A"/>
		<stop  offset="0.33" style="stop-color:#E2B755"/>
		<stop  offset="0.58" style="stop-color:#E2B755"/>
		<stop  offset="0.69" style="stop-color:#8F5D21"/>
		<stop  offset="1" style="stop-color:#E2B755"/>
	</linearGradient>
	<rect x="235.372" y="77.453" clip-path="url(#SVGID_139_)" fill="url(#SVGID_140_)" width="7.032" height="8.331"/>
</g>
<g>
	<defs>
		<polygon id="SVGID_141_" points="253.681,77.453 253.681,84.998 248.646,84.998 248.646,77.453 247.802,77.453 247.802,85.784 
			254.812,85.784 254.812,87.344 255.61,87.344 255.61,84.998 254.525,84.998 254.525,77.453 		"/>
	</defs>
	<clipPath id="SVGID_142_">
		<use xlink:href="#SVGID_141_"  overflow="visible"/>
	</clipPath>
	
		<linearGradient id="SVGID_143_" gradientUnits="userSpaceOnUse" x1="0" y1="125.626" x2="1" y2="125.626" gradientTransform="matrix(298.3466 0 0 -298.3466 -16.9215 37562.4648)">
		<stop  offset="0" style="stop-color:#EEC65F"/>
		<stop  offset="0.23" style="stop-color:#A76F2A"/>
		<stop  offset="0.33" style="stop-color:#E2B755"/>
		<stop  offset="0.58" style="stop-color:#E2B755"/>
		<stop  offset="0.69" style="stop-color:#8F5D21"/>
		<stop  offset="1" style="stop-color:#E2B755"/>
	</linearGradient>
	<rect x="247.802" y="77.453" clip-path="url(#SVGID_142_)" fill="url(#SVGID_143_)" width="7.809" height="9.891"/>
</g>
<g>
	<defs>
		<polygon id="SVGID_144_" points="266.418,77.453 261.051,84.356 261.051,77.453 260.206,77.453 260.206,85.784 260.932,85.784 
			266.313,78.881 266.313,85.784 267.157,85.784 267.157,77.453 		"/>
	</defs>
	<clipPath id="SVGID_145_">
		<use xlink:href="#SVGID_144_"  overflow="visible"/>
	</clipPath>
	
		<linearGradient id="SVGID_146_" gradientUnits="userSpaceOnUse" x1="0" y1="125.626" x2="1" y2="125.626" gradientTransform="matrix(298.3563 0 0 -298.3563 -16.7789 37562.8359)">
		<stop  offset="0" style="stop-color:#EEC65F"/>
		<stop  offset="0.23" style="stop-color:#A76F2A"/>
		<stop  offset="0.33" style="stop-color:#E2B755"/>
		<stop  offset="0.58" style="stop-color:#E2B755"/>
		<stop  offset="0.69" style="stop-color:#8F5D21"/>
		<stop  offset="1" style="stop-color:#E2B755"/>
	</linearGradient>
	<rect x="260.206" y="77.453" clip-path="url(#SVGID_145_)" fill="url(#SVGID_146_)" width="6.951" height="8.331"/>
</g>
<g>
	<defs>
		<polygon id="SVGID_147_" points="278.766,77.453 273.397,84.356 273.397,77.453 272.554,77.453 272.554,85.784 273.28,85.784 
			278.66,78.881 278.66,85.784 279.504,85.784 279.504,77.453 		"/>
	</defs>
	<clipPath id="SVGID_148_">
		<use xlink:href="#SVGID_147_"  overflow="visible"/>
	</clipPath>
	
		<linearGradient id="SVGID_149_" gradientUnits="userSpaceOnUse" x1="0" y1="125.626" x2="1" y2="125.626" gradientTransform="matrix(298.3502 0 0 -298.3502 -16.9263 37562.1953)">
		<stop  offset="0" style="stop-color:#EEC65F"/>
		<stop  offset="0.23" style="stop-color:#A76F2A"/>
		<stop  offset="0.33" style="stop-color:#E2B755"/>
		<stop  offset="0.58" style="stop-color:#E2B755"/>
		<stop  offset="0.69" style="stop-color:#8F5D21"/>
		<stop  offset="1" style="stop-color:#E2B755"/>
	</linearGradient>
	<rect x="272.554" y="77.453" clip-path="url(#SVGID_148_)" fill="url(#SVGID_149_)" width="6.95" height="8.331"/>
</g>
<g>
	<defs>
		<rect id="SVGID_150_" width="279.504" height="125.626"/>
	</defs>
	<clipPath id="SVGID_151_">
		<use xlink:href="#SVGID_150_"  overflow="visible"/>
	</clipPath>
	<path clip-path="url(#SVGID_151_)" fill="#3D3D3D" d="M98.453,66.544V38.603h11.297c9.421,0,11.616,4.75,11.616,9.181
		c0,4.591-2.954,9.181-11.656,9.181h-6.427v9.58H98.453z M103.283,43.113v9.34h6.347c4.711,0,6.706-1.836,6.706-4.71
		c0-2.674-1.676-4.63-6.426-4.63H103.283z"/>
	<rect x="133.497" y="38.603" clip-path="url(#SVGID_151_)" fill="#3D3D3D" width="4.83" height="27.942"/>
	<polygon clip-path="url(#SVGID_151_)" fill="#3D3D3D" points="172.016,66.545 156.608,47.503 156.608,66.545 151.898,66.545 
		151.898,38.603 155.65,38.603 171.058,57.723 171.058,38.603 175.768,38.603 175.768,66.545 	"/>
	<path clip-path="url(#SVGID_151_)" fill="#3D3D3D" d="M213.566,61.674c-2.314,3.273-6.587,5.189-11.336,5.189
		c-8.782,0-14.37-5.628-14.37-14.29c0-7.983,5.628-14.29,14.29-14.29c5.069,0,9.062,2.036,10.978,4.83l-3.194,3.034
		c-1.916-2.116-4.511-3.234-7.544-3.234c-5.748,0-9.5,3.832-9.5,9.66c0,5.828,3.991,9.66,9.699,9.66
		c3.513,0,6.228-1.397,8.144-3.672L213.566,61.674z"/>
	<polygon clip-path="url(#SVGID_151_)" fill="#3D3D3D" points="224.939,38.603 245.697,38.603 245.697,43.152 229.77,43.152 
		229.77,50.179 244.66,50.179 244.66,54.569 229.77,54.569 229.77,61.994 246.096,61.994 246.096,66.545 224.939,66.545 	"/>
	<polygon clip-path="url(#SVGID_151_)" fill="#3D3D3D" points="255.913,38.603 279.504,38.603 279.504,43.152 270.123,43.152 
		270.123,66.545 265.294,66.545 265.294,43.152 255.913,43.152 	"/>
</g>
</svg>
